<?xml version="1.0" standalone="no"?>
<!DOCTYPE svg PUBLIC "-//W3C//DTD SVG 1.1//EN" "http://www.w3.org/Graphics/SVG/1.1/DTD/svg11.dtd" >
<svg xmlns="http://www.w3.org/2000/svg">
<metadata></metadata>
<defs>
<font id="futurama_alien_alphabet_oneRg" horiz-adv-x="850" >
<font-face units-per-em="2048" ascent="1638" descent="-410" />
<missing-glyph horiz-adv-x="1024" />
<glyph unicode="&#xd;" horiz-adv-x="1024" />
<glyph horiz-adv-x="0" />
<glyph horiz-adv-x="0" />
<glyph unicode=" "  horiz-adv-x="1024" />
<glyph unicode="&#x09;" horiz-adv-x="1024" />
<glyph unicode="&#xa0;" horiz-adv-x="1024" />
<glyph unicode="!" horiz-adv-x="1292" d="M102 883q4 -129 135 -152q115 -1 158 104q12 82 -24.5 132t-133.5 54q-123 -19 -135 -138zM463 1305q3 -130 134 -152q116 -1 159 104q11 82 -25.5 132t-133.5 53q-122 -18 -134 -137zM465 418q3 -129 134 -151q116 -2 158 104q12 81 -24.5 131.5t-133.5 53.5 q-122 -18 -134 -138zM832 862q4 -129 134 -151q116 -2 159 104q12 81 -25 131.5t-134 53.5q-122 -19 -134 -138z" />
<glyph unicode="&#x22;" horiz-adv-x="638" d="M92 1655q-11 -193 35 -218q80 -9 78 104l-14 214q34 58 64 23t44 -63t41 -60t63 -41l66 -14q30 -7 32 -94q-18 -168 10 -228q35 -43 95 -16q14 79 5 159t15 325q-43 75 -115 3q-78 -9 -104.5 19t-50 105.5t-163.5 62.5q-128 -38 -101 -281z" />
<glyph unicode="'" d="M102 1456v133h578v-580h-139v447h-439z" />
<glyph unicode="-" d="M102 759v148h525v-148h-525zM479 842q12 119 135 138q97 -4 133.5 -54t24.5 -132q-43 -105 -158 -103q-131 22 -135 151z" />
<glyph unicode="." horiz-adv-x="1224" d="M102 762v141h878v473h141v-1078h-141v464h-878z" />
<glyph unicode="0" horiz-adv-x="1268" d="M102 828q0 236 176 389q151 130 365 130q213 0 367 -149t154 -369q0 -228 -156.5 -378.5t-377.5 -150.5q-225 0 -376.5 147t-151.5 381zM262 819q0 -187 120 -291q90 -72 243 -72q159 0 263.5 82.5t104.5 264.5q0 196 -114 292q-93 78 -256 78q-153 0 -246 -78 q-115 -95 -115 -276zM626 906q0 43 31 74.5t73 31.5q40 0 68 -30t28 -75t-29.5 -75.5t-70.5 -30.5q-40 0 -70 31t-30 74z" />
<glyph unicode="1" horiz-adv-x="675" d="M139 809q0 79 59 138.5t136 59.5q76 0 128.5 -56t52.5 -141q0 -84 -55 -142t-133 -58q-76 0 -132 58.5t-56 140.5z" />
<glyph unicode="2" horiz-adv-x="615" d="M102 1449q0 67 44 107q38 38 89 38q54 0 92.5 -41t38.5 -104q0 -61 -38.5 -102.5t-94.5 -41.5t-93.5 40.5t-37.5 103.5zM172 136v299v312v581l124 2v-638v-321q4 -293 -0.5 -336.5t-17 -59.5t-43.5 -16t-43.5 19t-16 47.5t-3.5 110.5z" />
<glyph unicode="3" horiz-adv-x="1670" d="M105 222.5q-3 20.5 5.5 49.5t62.5 124l628 1016l109 -63l-606 -1019q-51 -92 -81.5 -122.5t-53.5 -31.5t-42 12.5t-22 34zM705 1458q0 71 46 114q41 41 94 41q58 0 98 -44.5t40 -110.5q0 -67 -40 -111t-100 -44q-59 0 -98.5 43.5t-39.5 111.5zM768 1340l109 65l648 -1070 q38 -59 44.5 -82t6 -42.5t-21 -34t-48 -8.5t-57 35.5t-84.5 121.5z" />
<glyph unicode="4" horiz-adv-x="1636" d="M102 641.5q0 30.5 18.5 43t47.5 16t110 3.5h300h311h500q45 -8 60 -26t15 -37.5t-14.5 -35.5t-58.5 -25h-556h-322q-292 -3 -334.5 1t-59.5 17t-17 43.5zM656 1449q0 67 44 107q38 38 89 38q54 0 92.5 -41t38.5 -104q0 -61 -38.5 -102.5t-94.5 -41.5t-93.5 40.5 t-37.5 103.5zM726 136v299v312v581l124 2v-638v-321q4 -293 -0.5 -336.5t-17 -59.5t-43.5 -16t-43.5 19t-16 47.5t-3.5 110.5z" />
<glyph unicode="5" horiz-adv-x="1670" d="M102 283.5q0 35.5 29 80t129 136.5l1103 1005l110 -118l-1159 -1083q-63 -62 -90 -76.5t-51.5 -19t-47.5 17.5t-23 57.5zM138 1435l119 109l1081 -1160q63 -63 77 -90t18.5 -51.5t-17.5 -47.5t-57.5 -23t-80 29t-136.5 129zM559 867q0 115 75 185q66 66 152 66 q94 0 159 -72t65 -179q0 -108 -65 -179.5t-162 -71.5q-96 0 -160 70.5t-64 180.5z" />
<glyph unicode="6" horiz-adv-x="1807" d="M139 703q141 -356 690 -240q391 327 750 0q178 -18 58 179q-370 290 -786 54q-437 -195 -552 27q-149 73 -160 -20zM738 1290q0 68 51 119.5t118 51.5q65 0 110.5 -48.5t45.5 -121.5t-47.5 -123t-115.5 -50q-65 0 -113.5 50.5t-48.5 121.5z" />
<glyph unicode="7" horiz-adv-x="1636" d="M102 921.5q0 30.5 18.5 43t47.5 16t111 3.5h299h311h500q45 -8 60 -26t15 -37.5t-14.5 -35.5t-58.5 -25h-556h-322q-292 -3 -334.5 1t-59.5 17t-17 43.5zM102 1341.5q0 30.5 18.5 43t47.5 16t110 3.5h300h311h500q45 -8 60 -26t15 -37.5t-14.5 -35.5t-58.5 -25h-556h-322 q-292 -3 -334.5 1t-59.5 17t-17 43.5zM636 469q0 67 44 107q38 38 89 38q54 0 92.5 -41t38.5 -104q0 -61 -38.5 -102.5t-94.5 -41.5t-93.5 40.5t-37.5 103.5z" />
<glyph unicode="8" horiz-adv-x="1636" d="M102.5 1354.5q0.5 19.5 15 35t58.5 24.5l556 -2l322 -1q292 2 334.5 -2t59.5 -17.5t16.5 -44t-19 -42.5t-47.5 -15.5t-110.5 -3.5t-299.5 1l-311 1l-500 2q-45 8 -60 26.5t-14.5 38zM412 914.5q0 19.5 8.5 35t32.5 24.5l311 -2l180 -1q163 2 186.5 -2t33 -17.5t9.5 -44 t-10.5 -42.5t-26.5 -15.5t-61.5 -3.5t-167.5 1l-174 1l-279 2q-25 8 -33.5 26.5t-8.5 38zM664 344q0 61 38.5 102t94.5 41t93.5 -40.5t37.5 -103.5q-1 -67 -45 -107q-38 -38 -89 -38q-54 0 -92.5 41.5t-37.5 104.5zM734 462l2 638l1 321q-2 293 2.5 336.5t17 59.5t43.5 16 t43.5 -19t16 -47.5t3 -110.5t-1.5 -299l-1 -312l-2 -581z" />
<glyph unicode="9" horiz-adv-x="1670" d="M102.5 1568.5q0.5 19.5 21 34t48 8.5t57 -35.5t84.5 -121.5l595 -1016l-109 -65l-646 1071q-38 59 -44.5 82t-6 42.5zM155 1581.5q0 30.5 18.5 43t47.5 16t111 3.5h299h311h500q45 -8 60 -26t15 -37.5t-14.5 -35.5t-58.5 -25h-556h-322q-292 -3 -334.5 1t-59.5 17 t-17 43.5zM693 320q0 67 40 111t100 44q59 0 98.5 -43.5t39.5 -111.5q0 -71 -46 -114q-41 -41 -94 -41q-58 0 -98 44.5t-40 110.5zM766 429l608 1018q51 92 81.5 122.5t53.5 31.5t42 -12.5t22 -34t-5.5 -49.5t-62.5 -124l-630 -1015z" />
<glyph unicode=":" horiz-adv-x="1224" d="M102 762v141h878v473h141v-1078h-141v464h-878zM104 298v464v141v473h141v-1078h-141z" />
<glyph unicode=";" horiz-adv-x="1360" d="M102 759v148h815v-148h-815zM1080 298v1037h145v-1037h-145z" />
<glyph unicode="A" horiz-adv-x="1803" d="M102 832q7 31 29 31q39 0 125 -102q132 -159 276 -231q136 -68 305 -68q9 0 19 1h23q275 0 420 94q151 98 274 244q76 90 105 90q18 0 18 -34q-133 -246 -341 -382.5t-469 -151.5q-12 -1 -24 -1q-135 0 -308 70q-188 76 -315.5 216t-136.5 224zM757 1449q0 67 44 107 q38 38 89 38q54 0 92.5 -41t38.5 -104q0 -61 -38.5 -102.5t-94.5 -41.5t-93.5 40.5t-37.5 103.5zM827 136v299v312v581l124 2v-638v-321q2 -138 2 -221q-1 -94 -3 -116q-4 -44 -16.5 -59.5t-43.5 -15.5t-43.5 19t-16 47.5t-3.5 110.5z" />
<glyph unicode="B" horiz-adv-x="1530" d="M102 87l1109 326q71 49 110 49q45 0 44 -66q0 -24 -6 -58l-1222 -360zM181 920l82 80l1092 -548l2 -110l-7 -9zM251 987l575 571h143l-631 -629q-54 -20 -81 -20q-28 0 -29 22q0 19 23 56zM784 1034q3 -129 134 -151h4q113 0 154 104q3 20 3 38q1 55 -27 93 q-36 50 -134 54q-122 -19 -134 -138z" />
<glyph unicode="C" horiz-adv-x="1636" d="M116 650q-2 3 -1 6q0 22 99 43l642 -765v-16q0 -72 -37 -72q-15 0 -35 11q-654 769 -668 793zM214 699l1184 334q25 2 45 2q70 0 70 -27q0 -19 -33 -50l-1203 -335q-82 1 -82 35q0 17 19 41zM759 51v1582q10 40 33 40q25 0 65 -45l-1 -1698l-36 19l-36 34zM850 1636 l676 -607q21 -21 21 -36q0 -27 -67 -35l-628 564q-30 32 -30 60t28 54z" />
<glyph unicode="D" horiz-adv-x="1803" d="M102 323q12 119 134 138q97 -3 134 -53q28 -38 28 -94q0 -18 -3 -38q-42 -104 -155 -104h-4q-130 22 -134 151zM102 1420q12 119 134 138q97 -4 134 -54q28 -38 28 -93q0 -18 -3 -38q-42 -104 -155 -104h-4q-130 22 -134 151zM228 1354q-15 39 -15 62q0 33 31 33 q29 0 86 -30l264 -250q-33 -77 -87 -79zM262 452l228 215q58 -33 82 -84l-233 -216q-47 -19 -73 -19q-31 0 -31 28q0 26 27 76zM354 861q0 221 165 364q141 122 342 122q199 0 343.5 -139.5t144.5 -345.5q0 -214 -146.5 -355t-353.5 -141q-211 0 -353 137.5t-142 357.5z M504 852q0 -175 112 -272q85 -68 228 -68q149 0 247 77.5t98 247.5q0 184 -107 274q-87 73 -240 73q-143 0 -230 -73q-108 -89 -108 -259zM1130 1163l267 252q65 40 95 40q27 0 27 -32q0 -23 -15 -64l-301 -281q-74 5 -74 67q0 8 1 18zM1138 566l87 91l236 -223 q42 -70 42 -97q0 -18 -18 -19q-34 0 -128 60zM1325 323q12 119 135 138q96 -3 133 -53q28 -38 28 -94q0 -18 -3 -38q-42 -104 -154 -104h-4q-131 22 -135 151zM1337 1420q12 119 134 138q97 -4 134 -54q28 -38 28 -93q0 -18 -3 -38q-42 -104 -155 -104h-4q-131 22 -134 151z " />
<glyph unicode="E" horiz-adv-x="1530" d="M102 898q514 179 563 898h118q-62 -738 -417 -900q401 -165 417 -959l-126 -5q1 24 1 47q0 741 -556 919zM601 27q0 67 44 107q37 38 88 38q55 0 93 -41t38 -104q0 -61 -38 -102.5t-94 -41.5q-57 0 -94 40.5t-37 103.5zM601 1694q0 67 44 107q37 38 88 38q55 0 93 -41 t38 -104q0 -61 -38 -102.5t-94 -41.5q-57 0 -94 40.5t-37 103.5zM684 -63v11q0 740 403 957q-393 117 -393 865v26h75h44v-34q0 -743 562 -849q-560 -187 -559 -881q0 -49 2 -100z" />
<glyph unicode="F" horiz-adv-x="1530" d="M136 29v134v1450h1303l1 -1038h-739l-2 423h133v-290h460v746h-1001v-1274h1139v-151h-1294zM633 1012q0 63 36.5 104t88.5 41q50 0 85 -38q43 -41 43 -107q0 -63 -36.5 -103.5t-89.5 -40.5q-54 0 -90.5 41.5t-36.5 102.5z" />
<glyph unicode="G" horiz-adv-x="1190" d="M197 936l101 62l646 -244q67 -27 67 -51q0 -26 -79 -48zM223 981l364 160q57 -7 57 -30t-57 -61l-269 -116q168 -63 168 -74q0 -2 -7 -2q-22 0 -113 22q-181 42 -181 74q0 14 38 27zM492 1604q0 66 44 107q37 38 88 38q55 0 93 -41t38 -104q0 -61 -38 -103t-95 -42 q-56 0 -93 41t-37 104zM549 75v553l116 5l-3 -53v-509v-11q0 -104 -53 -104h-5q-55 5 -55 102v17zM565 1050v508q29 78 57 78t55 -78l-2 -439q2 -24 -28 -46.5t-82 -22.5zM602 662l276 68q87 -16 87 -40q0 -16 -36 -35l-320 -82q-56 26 -56 49q0 22 49 40z" />
<glyph unicode="H" horiz-adv-x="1803" d="M102 1036q12 51 29 51q12 0 27 -26q36 -63 78.5 -108.5t96.5 -96t198 -122.5q136 -68 305 -67h19h23q276 0 420 94q150 99 274 245q76 90 106 90q18 0 18 -35q-133 -246 -341.5 -382t-468.5 -152h-21q-137 1 -312 71q-188 76 -315.5 215.5t-135.5 222.5zM760 171 q14 50 71 76v355v284v531v19q0 162 48 240q51 82 117.5 123t150.5 56.5t147 19t235 3.5v-112q-191 0 -252 -6t-125 -25t-106.5 -58t-65.5 -86.5t-28 -171.5v-582v-294v-296q17 -4 42 -29q24 -24 32 -69l2 -16q0 -37 -30 -79q-36 -50 -88 -56q-10 -1 -19 -1q-38 1 -67 17 q-34 20 -56 64q-13 26 -13 54q-1 19 5 39z" />
<glyph unicode="I" horiz-adv-x="1871" d="M102 930q0 67 45 108q37 35 90 35q52 0 90.5 -40.5t38.5 -100.5q0 -63 -38.5 -104.5t-94.5 -41.5t-93.5 40t-37.5 104zM138 927q3 90 26 199q39 119 126.5 239t177.5 185.5t169 95.5q79 28 170 46q54 10 134 11q55 0 121 -5q178 -26 249.5 -60t144.5 -82.5t182 -170.5 q142 -205 142 -438q0 -27 -2 -54q0 -372 -243 -617q-244 -249 -611 -249q-461 24 -647 357l450 711l258 -253l237 320l221 -313l-118 -106l-98 147l-220 -267l-252 210l-280 -443q141 -211 462 -211q147 0 265 51t215 156q61 65 103.5 148t64 176t21.5 197q0 267 -170 430 q-156 136 -296 172q-101 26 -198 26q-38 0 -76 -4q-134 -14 -248 -88.5t-193 -215t-103 -285.5q-25 -98 -83 -98q-9 0 -17 2q-70 16 -84 81z" />
<glyph unicode="J" horiz-adv-x="1735" d="M119 483q17 53 71 85q37 21 74 21q20 0 40 -6q51 -13 77 -57q17 -30 17 -62q0 -20 -6 -40q-16 -53 -71 -86q-37 -21 -76 -21q-16 0 -32 3q-55 13 -82 61q-18 31 -18 63q0 19 6 39zM119 483q17 53 71 85q37 21 74 21q20 0 40 -6q51 -13 77 -57q17 -30 17 -62q0 -20 -6 -40 q-16 -53 -71 -86q-37 -21 -76 -21q-16 0 -32 3q-55 13 -82 61q-18 31 -18 63q0 19 6 39zM119 483q17 53 71 85q37 21 74 21q20 0 40 -6q51 -13 77 -57q17 -30 17 -62q0 -20 -6 -40q-16 -53 -71 -86q-37 -21 -76 -21q-16 0 -32 3q-55 13 -82 61q-18 31 -18 63q0 19 6 39z M119 483q17 53 71 85q37 21 74 21q20 0 40 -6q51 -13 77 -57q17 -30 17 -62q0 -20 -6 -40q-16 -53 -71 -86q-37 -21 -76 -21q-16 0 -32 3q-55 13 -82 61q-18 31 -18 63q0 19 6 39zM131 1111q-5 18 -5 36q0 31 16 59q28 48 82 60q16 4 31 4q39 0 78 -23q53 -31 70 -85 q6 -19 6 -38q0 -33 -18 -64q-27 -48 -81 -60q-16 -4 -31 -4q-39 0 -79 23q-58 32 -69 92zM131 1111q-5 18 -5 36q0 31 16 59q28 48 82 60q16 4 31 4q39 0 78 -23q53 -31 70 -85q6 -19 6 -38q0 -33 -18 -64q-27 -48 -81 -60q-16 -4 -31 -4q-39 0 -79 23q-58 32 -69 92z M131 1111q-5 18 -5 36q0 31 16 59q28 48 82 60q16 4 31 4q39 0 78 -23q53 -31 70 -85q6 -19 6 -38q0 -33 -18 -64q-27 -48 -81 -60q-16 -4 -31 -4q-39 0 -79 23q-58 32 -69 92zM131 1111q-5 18 -5 36q0 31 16 59q28 48 82 60q16 4 31 4q39 0 78 -23q53 -31 70 -85 q6 -19 6 -38q0 -33 -18 -64q-27 -48 -81 -60q-16 -4 -31 -4q-39 0 -79 23q-58 32 -69 92zM224 505l1038 599l64 -106l-1039 -600zM224 505l1038 599l64 -106l-1039 -600zM224 505l1038 599l64 -106l-1039 -600zM341 1017l60 109l1039 -599l-61 -109zM341 1017l60 109 l1039 -599l-61 -109zM341 1017l60 109l1039 -599l-61 -109zM1262 1142q17 52 71 84q38 22 77 22l39 -6q51 -14 76 -58q18 -30 18 -63q0 -19 -7 -39q-16 -53 -70 -85q-39 -22 -78 -22l-32 4q-55 13 -82 60q-18 32 -18 64q0 19 6 39zM1262 1142q17 52 71 84q38 22 77 22l39 -6 q51 -14 76 -58q18 -30 18 -63q0 -19 -7 -39q-16 -53 -70 -85q-39 -22 -78 -22l-32 4q-55 13 -82 60q-18 32 -18 64q0 19 6 39zM1262 1142q17 52 71 84q38 22 77 22l39 -6q51 -14 76 -58q18 -30 18 -63q0 -19 -7 -39q-16 -53 -70 -85q-39 -22 -78 -22l-32 4q-55 13 -82 60 q-18 32 -18 64q0 19 6 39zM1262 1142q17 52 71 84q38 22 77 22l39 -6q51 -14 76 -58q18 -30 18 -63q0 -19 -7 -39q-16 -53 -70 -85q-39 -22 -78 -22l-32 4q-55 13 -82 60q-18 32 -18 64q0 19 6 39zM1272 449q-5 18 -5 35q0 31 17 60q27 48 82 60q15 4 30 4q39 0 78 -23 q53 -30 70 -84q7 -21 7 -41q0 -32 -17 -62q-29 -48 -82 -60q-15 -3 -30 -3q-39 0 -79 22q-57 34 -71 92zM1272 449q-5 18 -5 35q0 31 17 60q27 48 82 60q15 4 30 4q39 0 78 -23q53 -30 70 -84q7 -21 7 -41q0 -32 -17 -62q-29 -48 -82 -60q-15 -3 -30 -3q-39 0 -79 22 q-57 34 -71 92zM1272 449q-5 18 -5 35q0 31 17 60q27 48 82 60q15 4 30 4q39 0 78 -23q53 -30 70 -84q7 -21 7 -41q0 -32 -17 -62q-29 -48 -82 -60q-15 -3 -30 -3q-39 0 -79 22q-57 34 -71 92zM1272 449q-5 18 -5 35q0 31 17 60q27 48 82 60q15 4 30 4q39 0 78 -23 q53 -30 70 -84q7 -21 7 -41q0 -32 -17 -62q-29 -48 -82 -60q-15 -3 -30 -3q-39 0 -79 22q-57 34 -71 92z" />
<glyph unicode="K" horiz-adv-x="1530" d="M170 1262v109h597v-109h-597zM173 1267l126 36l619 -742l-87 -86zM486 162q0 66 44 107q38 35 90 35q53 0 91.5 -40.5t38.5 -100.5q0 -63 -38.5 -104.5t-94.5 -41.5t-93.5 40t-37.5 105zM568 151v951h121v-951h-121zM571 976v125h766v-125h-766zM716 1260v519h119v-519 h-119zM765 587l454 456l116 -65l-485 -485z" />
<glyph unicode="L" horiz-adv-x="1700" d="M185 1048q-26 105 -26 198q0 204 126 344q121 119 232 119q74 0 143 -54q160 -99 170 -305q1 -29 1 -58q0 -173 -51 -328l-258 -913l-135 3l279 939q36 167 36 285q0 156 -63 227q-53 62 -120 62q-55 0 -120 -43q-86 -54 -122 -245q-2 -17 -2 -36q0 -85 39 -188 q79 -140 259 -222q200 -58 367 -58q100 0 188 20q236 55 335 158q79 98 91 219l-1 104q-2 160 -80 238q-55 61 -116 61q-45 0 -93 -32q-126 -89 -133 -274q-3 -33 -4 -67q0 -146 60 -316l311 -835h-153l-333 936q-27 128 -27 235q0 279 182 414q89 72 174 72q108 0 210 -114 q115 -132 115 -349q0 -65 -10 -138q-34 -190 -187 -308q-282 -174 -555 -174q-253 0 -498 149q-148 85 -231 274z" />
<glyph unicode="M" horiz-adv-x="1806" d="M102 1391q24 67 100 75l339 -338q-7 -84 -63 -84q-15 0 -34 6zM417 284v888h930v-888h-930zM542 410h674v638h-674v-638zM728 730q0 64 47 103q40 36 94 36q56 0 96 -40t40 -98q0 -63 -40 -102.5t-99 -39.5q-58 0 -98 38t-40 103zM1238 320q10 88 66 102l368 -368 q-17 -75 -78 -75q-7 0 -14 1z" />
<glyph unicode="N" horiz-adv-x="1871" d="M102 915q6 339 289 582q236 177 561 177q323 0 558.5 -229.5t235.5 -576.5q0 -354 -238 -588t-575 -234q-341 12 -554 218q-274 285 -277 651zM258 881q7 -301 213 -483q170 -162 442 -162q289 0 484 162.5t210 462.5q-8 318 -223 505q-177 167 -436 167h-9 q-244 -4 -439 -152q-235 -170 -242 -500zM357 885q0 66 44 107q37 35 90 35t91 -40.5t38 -100.5q0 -63 -38 -104.5t-94 -41.5t-93.5 40t-37.5 105zM1231 881q0 66 44 107q38 36 90 36q53 0 91.5 -41t38.5 -100q0 -63 -38.5 -104.5t-94.5 -41.5t-93.5 39.5t-37.5 104.5z" />
<glyph unicode="O" horiz-adv-x="1564" d="M244 768q142 -2 476 -72q216 -45 372 -45q87 0 155 14q4 -16 4 -30q0 -91 -174 -91q-20 0 -41 1q-245 13 -314.5 25.5t-418.5 89.5q-118 64 -118 90q0 18 56 18h3zM301 658l116 -7q135 -17 383 -193q243 -173 244 -312v-6q-3 -79 -26 -79q-18 0 -47 48 q-68 109 -246.5 251t-423.5 298zM334 1313q13 214 161 352q172 140 409 141q30 0 61 -3q404 -59 450 -400q3 -30 3 -58q0 -208 -168 -331q-84 -72 -231 -72q-47 0 -100 7q-104 21 -190 106t-91 221q2 130 86 206q72 65 161 66q14 0 29 -2q8 1 17 1q87 0 147 -69 q41 -46 41 -102q0 -34 -15 -71q-26 -31 -49 -31t-44 32q4 20 4 37q0 91 -120 106q-139 -22 -139 -181q0 -13 1 -26q29 -130 163 -172q60 -18 111 -17q63 -1 111 25q88 48 133 138q23 46 23 108q0 58 -20 130q-74 167 -230 204q-73 24 -157 24q-62 0 -130 -13 q-113 -28 -188.5 -94t-102.5 -230q3 -180 64.5 -281t263.5 -219q236 -113 386 -149q86 -20 86 -59q0 -28 -47 -67q-493 126 -721 349q-160 163 -168 394zM1080 356q0 61 43 98q37 32 88 32t87.5 -37t36.5 -92q0 -58 -36.5 -95t-90.5 -37q-55 0 -91.5 36.5t-36.5 94.5z" />
<glyph unicode="P" horiz-adv-x="1871" d="M102 1138l653 -1022q33 -29 57 -29q54 0 71 141l-571 910h-210zM628 987q14 -135 146 -152q119 10 148 143q-12 133 -148 145q-129 -7 -146 -136zM679 947l180 2v36q0 271 71 433q76 172 208 226q59 24 114 24q70 0 134 -38q116 -68 168 -219t59 -414l-308 1v-154h481 q0 336 -50 538.5t-165 313t-277 124.5q-25 2 -50 3q-134 0 -252 -67q-140 -79 -229 -272q-84 -183 -84 -501v-36zM761 257q-8 -48 -8 -82q0 -84 47 -85q23 0 58 21l639 881l-190 3zM1358 913l110 29z" />
<glyph unicode="Q" horiz-adv-x="1752" d="M119 483q17 53 71 85q37 21 74 21q20 0 40 -6q51 -13 77 -57q17 -30 17 -62q0 -20 -6 -40q-16 -53 -71 -86q-37 -21 -76 -21q-16 0 -32 3q-55 13 -82 61q-18 31 -18 63q0 19 6 39zM119 483q17 53 71 85q37 21 74 21q20 0 40 -6q51 -13 77 -57q17 -30 17 -62q0 -20 -6 -40 q-16 -53 -71 -86q-37 -21 -76 -21q-16 0 -32 3q-55 13 -82 61q-18 31 -18 63q0 19 6 39zM119 483q17 53 71 85q37 21 74 21q20 0 40 -6q51 -13 77 -57q17 -30 17 -62q0 -20 -6 -40q-16 -53 -71 -86q-37 -21 -76 -21q-16 0 -32 3q-55 13 -82 61q-18 31 -18 63q0 19 6 39z M119 483q17 53 71 85q37 21 74 21q20 0 40 -6q51 -13 77 -57q17 -30 17 -62q0 -20 -6 -40q-16 -53 -71 -86q-37 -21 -76 -21q-16 0 -32 3q-55 13 -82 61q-18 31 -18 63q0 19 6 39zM131 1111q-5 18 -5 36q0 31 16 59q28 48 82 60q16 4 31 4q39 0 78 -23q53 -31 70 -85 q6 -19 6 -38q0 -33 -18 -64q-27 -48 -81 -60q-16 -4 -31 -4q-39 0 -79 23q-58 32 -69 92zM131 1111q-5 18 -5 36q0 31 16 59q28 48 82 60q16 4 31 4q39 0 78 -23q53 -31 70 -85q6 -19 6 -38q0 -33 -18 -64q-27 -48 -81 -60q-16 -4 -31 -4q-39 0 -79 23q-58 32 -69 92z M131 1111q-5 18 -5 36q0 31 16 59q28 48 82 60q16 4 31 4q39 0 78 -23q53 -31 70 -85q6 -19 6 -38q0 -33 -18 -64q-27 -48 -81 -60q-16 -4 -31 -4q-39 0 -79 23q-58 32 -69 92zM131 1111q-5 18 -5 36q0 31 16 59q28 48 82 60q16 4 31 4q39 0 78 -23q53 -31 70 -85 q6 -19 6 -38q0 -33 -18 -64q-27 -48 -81 -60q-16 -4 -31 -4q-39 0 -79 23q-58 32 -69 92zM224 505l1038 599l64 -106l-1039 -600zM224 505l1038 599l64 -106l-1039 -600zM224 505l1038 599l64 -106l-1039 -600zM341 1017l60 109l1039 -599l-61 -109zM341 1017l60 109 l1039 -599l-61 -109zM341 1017l60 109l1039 -599l-61 -109zM706 129q0 67 44 107q37 38 88 38q55 0 93 -41t38 -104q0 -61 -38 -102.5t-95 -41.5q-56 0 -93 40.5t-37 103.5zM706 129q0 67 44 107q37 38 88 38q55 0 93 -41t38 -104q0 -61 -38 -102.5t-95 -41.5 q-56 0 -93 40.5t-37 103.5zM706 129q0 67 44 107q37 38 88 38q55 0 93 -41t38 -104q0 -61 -38 -102.5t-95 -41.5q-56 0 -93 40.5t-37 103.5zM706 129q0 67 44 107q37 38 88 38q55 0 93 -41t38 -104q0 -61 -38 -102.5t-95 -41.5q-56 0 -93 40.5t-37 103.5zM707 1449 q0 67 44 107q38 38 89 38q54 0 92.5 -41t38.5 -104q0 -61 -38.5 -102.5t-94.5 -41.5t-93.5 40.5t-37.5 103.5zM707 1449q0 67 44 107q38 38 89 38q54 0 92.5 -41t38.5 -104q0 -61 -38.5 -102.5t-94.5 -41.5t-93.5 40.5t-37.5 103.5zM707 1449q0 67 44 107q38 38 89 38 q54 0 92.5 -41t38.5 -104q0 -61 -38.5 -102.5t-94.5 -41.5t-93.5 40.5t-37.5 103.5zM707 1449q0 67 44 107q38 38 89 38q54 0 92.5 -41t38.5 -104q0 -61 -38.5 -102.5t-94.5 -41.5t-93.5 40.5t-37.5 103.5zM777 129v1198l124 1v-1199h-124zM777 129v1198l124 1v-1199h-124z M777 129v1198l124 1v-1199h-124zM1262 1142q17 52 71 84q38 22 77 22l39 -6q51 -14 76 -58q18 -30 18 -63q0 -19 -7 -39q-16 -53 -70 -85q-39 -22 -78 -22l-32 4q-55 13 -82 60q-18 32 -18 64q0 19 6 39zM1262 1142q17 52 71 84q38 22 77 22l39 -6q51 -14 76 -58 q18 -30 18 -63q0 -19 -7 -39q-16 -53 -70 -85q-39 -22 -78 -22l-32 4q-55 13 -82 60q-18 32 -18 64q0 19 6 39zM1262 1142q17 52 71 84q38 22 77 22l39 -6q51 -14 76 -58q18 -30 18 -63q0 -19 -7 -39q-16 -53 -70 -85q-39 -22 -78 -22l-32 4q-55 13 -82 60q-18 32 -18 64 q0 19 6 39zM1262 1142q17 52 71 84q38 22 77 22l39 -6q51 -14 76 -58q18 -30 18 -63q0 -19 -7 -39q-16 -53 -70 -85q-39 -22 -78 -22l-32 4q-55 13 -82 60q-18 32 -18 64q0 19 6 39zM1272 449q-5 18 -5 35q0 31 17 60q27 48 82 60q15 4 30 4q39 0 78 -23q53 -30 70 -84 q7 -21 7 -41q0 -32 -17 -62q-29 -48 -82 -60q-15 -3 -30 -3q-39 0 -79 22q-57 34 -71 92zM1272 449q-5 18 -5 35q0 31 17 60q27 48 82 60q15 4 30 4q39 0 78 -23q53 -30 70 -84q7 -21 7 -41q0 -32 -17 -62q-29 -48 -82 -60q-15 -3 -30 -3q-39 0 -79 22q-57 34 -71 92z M1272 449q-5 18 -5 35q0 31 17 60q27 48 82 60q15 4 30 4q39 0 78 -23q53 -30 70 -84q7 -21 7 -41q0 -32 -17 -62q-29 -48 -82 -60q-15 -3 -30 -3q-39 0 -79 22q-57 34 -71 92zM1272 449q-5 18 -5 35q0 31 17 60q27 48 82 60q15 4 30 4q39 0 78 -23q53 -30 70 -84 q7 -21 7 -41q0 -32 -17 -62q-29 -48 -82 -60q-15 -3 -30 -3q-39 0 -79 22q-57 34 -71 92z" />
<glyph unicode="R" horiz-adv-x="1530" d="M136 -10h226l391 731l407 -731h235l-608 1025q-18 33 -37 33q-18 0 -36 -29zM156 -12h1228l-90 140h-1059zM192 964q43 -493 568 -539q543 55 556 568q-59 492 -547 523q-553 -21 -577 -552zM369 988q32 369 380 369h9q354 -13 393 -369q-17 -360 -389 -386 q-371 26 -393 386zM597 1000q19 -134 165 -134q141 0 151 139q-10 138 -161 153q-145 -15 -155 -158z" />
<glyph unicode="S" horiz-adv-x="1156" d="M170 1551l157 157q195 -102 273 -238q113 146 257 243l170 -170q-214 -48 -313 -160q220 -174 244 -497q-19 -323 -252 -505q117 -109 272 -143l-134 -136q-143 70 -261 208q-113 -123 -239 -205l-152 137q148 62 264 153q-208 185 -231 481q0 328 263 519 q-121 115 -318 156zM371 980q-13 -44 -13 -94q0 -76 29 -169q48 -154 202 -258q149 107 196 241q31 89 31 168q0 40 -8 78q-24 110 -81 201t-132 139q-85 -53 -138.5 -125t-85.5 -181zM456 876q0 66 44 107q38 36 90 36q53 0 91.5 -41t38.5 -100q0 -63 -38.5 -105t-94.5 -42 t-93.5 40t-37.5 105z" />
<glyph unicode="T" horiz-adv-x="1704" d="M170 408q12 119 134 138q98 -4 134 -54q28 -39 28 -95q0 -17 -3 -36q-42 -104 -155 -104h-4q-131 22 -134 151zM233 434l571 372v497h145v-498l604 -405l-94 -89l-576 383l-568 -342zM726 1371q12 119 135 138q97 -4 133 -54q27 -38 28 -93q0 -18 -3 -39 q-42 -103 -154 -103h-4q-131 22 -135 151zM1320 413q12 119 134 138q98 -3 134 -53q27 -38 27 -94q0 -18 -3 -38q-41 -104 -154 -104h-4q-131 22 -134 151z" />
<glyph unicode="U" horiz-adv-x="1292" d="M129 225q0 -65 37.5 -105t93.5 -40t94.5 41.5t38.5 104.5q0 60 -38.5 100.5t-90.5 40.5q-53 0 -91 -35q-44 -41 -44 -107zM218 1108q87 -86 222 -86q46 0 98 10q204 40 252 176q9 25 8 53q0 126 -174 321q-69 43 -98 43q-23 0 -23 -25q0 -22 16 -62q161 -166 173 -248 q1 -7 1 -14q1 -73 -121 -127q-68 -30 -125 -30q-54 -1 -98 27q-43 27 -44 46q-1 20 51 31q45 9 105 9q69 0 161 -12q168 -24 290 -104t132 -218v-13q0 -133 -192 -281l58 -65q202 113 237 287q10 50 10 93q-1 108 -63 178q-88 97 -175 146.5t-292 82.5q-67 11 -129 11 q-128 0 -236 -46q-93 -39 -93 -95q0 -39 49 -88zM296 119q170 -76 322 -76q22 -1 46 1q172 14 264 65q94 51 152 157q31 56 30 124q0 60 -24 129q-52 146 -310 262q-30 3 -51 3q-53 0 -53 -20q0 -17 42 -50q166 -124 216 -190q43 -56 43 -124q0 -12 -1 -22q-8 -80 -100 -136 q-91 -56 -223 -62h-19q-126 0 -295 80q-84 -23 -84 -66q0 -32 45 -75zM352 1567q0 -65 37.5 -105t93.5 -40t94.5 41.5t38.5 104.5q0 60 -38.5 101t-91.5 41q-52 0 -90 -36q-44 -41 -44 -107zM440 678q-14 -27 -14 -56q0 -42 32 -90q52 -80 189 -82q3 0 7 -1q134 0 273 100 l-75 58q-60 -39 -110 -51q-33 -8 -78 -8q-22 0 -46 2q-74 6 -80 69v7q0 57 66 74q41 10 68 10q20 0 33 -5q31 -13 60 -32.5t48.5 -34.5t103.5 -95l61 71q-32 78 -112 129t-171 59q-19 2 -36 2q-67 0 -119 -26q-64 -33 -100 -100z" />
<glyph unicode="V" horiz-adv-x="1394" d="M102 575l726 2l-2 421h-125v-290h-453l-2 746l984 4v-1276h-1116v-151h1269v134v1448l-1279 1zM644 1012q0 -61 37 -102.5t91 -41.5q53 0 89.5 40.5t36.5 103.5q0 66 -43 107q-35 38 -85 38q-52 0 -89 -41t-37 -104z" />
<glyph unicode="W" horiz-adv-x="1462" d="M104 953v102h1259v-104zM104 995l83 53l271 -541q-7 -60 -55 -60q-14 0 -30 5l-211 424q-60 44 -58 119zM575 1436q0 66 44 107q38 36 90 36q53 0 91.5 -41t38.5 -101q0 -63 -38.5 -104.5t-94.5 -41.5t-93.5 40t-37.5 105zM667 66v1331q22 91 48 91t56 -91v-1315 q-27 -40 -57 -40q-23 0 -47 24zM670 87l599 954l90 -43q1 -5 1 -11q0 -60 -72 -114l-540 -842q-22 -6 -39 -6q-42 0 -41 41q0 10 2 21z" />
<glyph unicode="X" horiz-adv-x="1871" d="M106 798q3 -128 52.5 -255.5t106.5 -206.5t171 -174q203 -131 435 -131q34 0 68 3q167 17 276.5 75.5t177.5 129.5t109 159q42 88 56 181q13 84 13 149q-1 8 -1 14q-2 70 -28 166.5t-96.5 181t-157.5 132.5t-177 68q-43 10 -99 9q-60 0 -132 -11q-140 -22 -236 -93.5 t-160.5 -183t-75.5 -297.5l2 -25h1417l2 127h-1264q22 174 132.5 260t230.5 94q28 2 54 2q86 0 154 -21q88 -28 159 -88.5t109 -145.5q39 -86 40 -227q0 -140 -91 -285q-91 -146 -305 -218q-92 -19 -175 -19q-236 0 -407 152q-132 127 -191 294q-37 105 -37 212q0 64 13 129 q35 174 141 309q104 136 250 199q122 53 305 53q35 0 72 -2v138q-42 4 -81 4q-49 0 -92 -6q-191 -17 -340 -111.5t-226 -199t-110.5 -183.5t-50.5 -170q-14 -74 -14 -151q0 -19 1 -37zM868 1565q0 -53 40.5 -91t100.5 -38q63 0 104.5 38t41.5 94t-40 93.5t-104 37.5 q-67 0 -108 -44q-35 -37 -35 -90z" />
<glyph unicode="Y" horiz-adv-x="1224" d="M204 798l2 126l788 287v-121zM206 789v136l783 -340v-117zM206 1492l786 -281v-117l-782 253zM208 1492l784 109l2 -133l-783 -107zM225 202v135l789 -140v-151zM227 218l1 119l764 245l-3 -113z" />
<glyph unicode="Z" horiz-adv-x="1700" d="M102 704q25 359 257 400l280 -2h1q102 0 103 196v218h252l2 -216q0 -196 103 -196h303q260 -58 267 -442q0 -317 -227 -526t-548 -209q-325 10 -528 194q-262 257 -265 583zM252 674q6 -269 202 -432q162 -145 422 -145q275 0 460.5 145.5t201.5 414.5q-9 280 -167 280 h-4h-302h-6q-135 0 -183 242q-59 -242 -202 -242h-9h-240h-11q-154 0 -162 -263zM357 668q0 60 66 96q57 32 137 32q81 0 138 -36.5t57 -89.5q0 -56 -57 -93.5t-144 -37.5q-83 0 -140 36t-57 93zM684 1619q15 131 168 152q121 -4 166 -59q34 -42 34 -104q0 -19 -3 -41 q-53 -114 -192 -114h-5q-163 23 -168 166zM1029 674q0 59 68 97q58 32 136 32q80 0 138.5 -36.5t58.5 -91.5q0 -56 -58.5 -93.5t-141.5 -37.5q-87 0 -144 36t-57 94z" />
<glyph unicode="a" horiz-adv-x="1513" d="M102 666q6 25 23 25q31 0 99 -82q106 -127 222 -185q110 -55 245 -54h14h17q220 0 337 76q121 78 219 195q61 72 85 72q14 0 14 -27q-107 -197 -273 -306.5t-375 -121.5h-18q-109 0 -247 56q-150 61 -252.5 172.5t-109.5 179.5zM626 1159q0 54 35 86q30 30 71 30 q43 0 74 -32.5t31 -83.5q0 -49 -31 -82t-75.5 -33t-74.5 32.5t-30 82.5zM682 109v239v250v464l99 2v-510v-257q1 -108 1 -174q0 -77 -2 -95q-4 -34 -13.5 -47.5t-34.5 -13.5t-35 15.5t-12.5 38t-2.5 88.5z" />
<glyph unicode="b" horiz-adv-x="1320" d="M102 70l887 260q57 39 88 39q35 0 35 -52q0 -20 -5 -47l-977 -288zM165 736l65 64l874 -438l2 -88l-6 -8zM221 790l460 456h114l-505 -503q-43 -16 -65 -16q-23 0 -23 17q0 16 19 46zM647 827q3 -103 107 -121h2q91 0 125 84q2 15 2 29q0 45 -22 75q-29 40 -107 44 q-97 -16 -107 -111z" />
<glyph unicode="c" horiz-adv-x="1402" d="M114 520q-1 2 -2 5q0 17 79 34l514 -612v-13q0 -56 -30 -57q-12 0 -28 9q-521 614 -533 634zM191 559l947 267q20 2 36 2q56 0 56 -22q0 -15 -26 -40l-962 -268q-66 1 -66 28q0 14 15 33zM627 41v1265q8 32 27 32q20 0 52 -36l-1 -1358l-29 15l-29 27zM700 1309l541 -486 q17 -17 17 -29q0 -21 -54 -28l-502 452q-25 25 -25 48q0 22 23 43z" />
<glyph unicode="d" horiz-adv-x="1475" d="M102 258q9 96 107 111q77 -3 107 -43q22 -30 22 -74q0 -15 -2 -31q-33 -83 -123 -83h-4q-104 17 -107 120zM102 1136q9 95 107 110q77 -2 107 -42q22 -30 22 -75q0 -15 -2 -31q-34 -83 -125 -83h-2q-104 18 -107 121zM202 1083q-11 31 -11 49q0 27 24 27q23 0 69 -24 l211 -200q-26 -61 -69 -63zM230 362l182 172q46 -27 66 -68l-187 -172q-38 -15 -58 -15q-25 0 -25 22q0 21 22 61zM303 689q0 177 132 291q113 98 274 98q159 0 274.5 -112t115.5 -276q0 -172 -117 -284.5t-283 -112.5q-169 0 -282.5 110t-113.5 286zM423 682 q0 -140 90 -218q68 -54 182 -54q119 0 197.5 62t78.5 198q0 147 -85 219q-70 58 -192 58q-115 0 -184 -58q-87 -71 -87 -207zM924 930l214 202q52 32 76 32q21 0 21 -25q0 -19 -12 -52l-241 -225q-59 4 -59 53q0 7 1 15zM930 453l70 73l189 -179q34 -56 34 -78 q0 -15 -15 -15q-27 0 -102 48zM1080 258q10 96 108 111q76 -3 106 -43q22 -30 23 -74q0 -15 -3 -31q-33 -83 -122 -83h-4q-105 17 -108 120zM1090 1136q9 95 107 110q77 -2 107 -42q22 -30 22 -75q0 -15 -2 -31q-34 -83 -125 -83h-2q-105 18 -107 121z" />
<glyph unicode="e" horiz-adv-x="1285" d="M102 718q411 144 450 719h94q-49 -591 -333 -720q321 -132 333 -767l-100 -4v37q0 592 -444 735zM501 22q0 53 35 85q30 31 70 31q44 0 74.5 -33t30.5 -83q0 -49 -30.5 -82.5t-74.5 -33.5q-46 0 -75.5 32.5t-29.5 83.5zM501 1355q0 54 35 86q30 30 70 30q44 0 74.5 -32.5 t30.5 -83.5q0 -49 -30.5 -82t-74.5 -33q-46 0 -75.5 32.5t-29.5 82.5zM567 -50v7q0 593 323 767q-315 94 -315 694v19h60h35v-26q0 -595 450 -681q-448 -150 -449 -705q0 -38 3 -79z" />
<glyph unicode="f" horiz-adv-x="1322" d="M136 23v107v1160h1042l1 -830h-591l-2 338h107v-232h368v597h-801v-1019h911v-121h-1035zM533 810q0 50 29.5 83t70.5 33q40 0 68 -31q35 -33 35 -85q0 -51 -29.5 -83.5t-71.5 -32.5q-43 0 -72.5 33.5t-29.5 82.5z" />
<glyph unicode="g" horiz-adv-x="903" d="M178 749l80 49l517 -195q53 -22 53 -41q0 -20 -62 -38zM198 785l292 128q46 -6 46 -24.5t-46 -48.5l-216 -93q135 -50 135 -59q0 -2 -6 -2q-17 0 -91 18q-144 33 -144 59q0 12 30 22zM414 1283q0 53 35 86q29 30 70 30q44 0 74.5 -32.5t30.5 -83.5q0 -49 -30.5 -82.5 t-75.5 -33.5t-74.5 33t-29.5 83zM459 60v442l93 4l-2 -42v-407v-7q0 -85 -43 -85q-2 0 -3 1q-45 3 -45 81v13zM472 840v406q23 62 45.5 62t44.5 -62l-2 -351q2 -19 -22 -37t-66 -18zM502 530l220 54q70 -13 70 -32q0 -13 -29 -28l-256 -66q-45 21 -45 40q0 17 40 32z" />
<glyph unicode="h" horiz-adv-x="1466" d="M102 829q9 41 23 41q10 0 22 -22q29 -50 62.5 -86t76.5 -76q44 -40 159 -98q108 -54 240 -54h19h22q216 0 332 74q120 78 220 196q61 72 84 73q15 0 15 -28q-107 -197 -273.5 -306t-374.5 -121h-18q-111 0 -249 56q-150 61 -252 172.5t-108 178.5zM628 137q12 40 57 61 v284v227v425v19q0 127 38 187q41 66 94 99t120.5 45.5t118 15t187.5 2.5v-89q-153 0 -201.5 -5t-100 -20t-85.5 -46.5t-52 -69.5t-22 -137v-465v-236v-236q13 -4 33 -23.5t26 -55.5q1 -6 1 -12q0 -31 -24 -65q-29 -40 -70 -44q-8 -1 -16 -1q-31 -1 -53 13q-28 16 -45 52 q-10 21 -10 44q-1 15 4 31z" />
<glyph unicode="i" horiz-adv-x="1589" d="M102 744q0 54 36 86q29 28 72 28q41 0 72 -32t31 -80q0 -51 -31 -84t-75.5 -33t-74.5 32t-30 83zM130 742q3 72 21 159q31 95 101 191t142 148.5t136 75.5q64 24 136 38q42 8 104 8q45 0 100 -4q142 -20 199 -47.5t115.5 -66t145.5 -136.5q114 -163 114 -350 q0 -22 -2 -44q0 -297 -194 -493q-195 -199 -489 -199q-369 19 -517 285l360 569l206 -202l190 256l176 -251l-94 -85l-78 118l-176 -214l-202 168l-224 -354q113 -169 370 -169q117 0 211.5 41t172.5 125q48 52 82 118.5t51.5 140.5t17.5 158q0 213 -136 344 q-125 108 -237 137q-82 21 -160 21q-30 0 -59 -3q-107 -11 -198.5 -71t-154.5 -172t-82 -228q-21 -79 -66 -79q-7 0 -14 2q-56 13 -68 65z" />
<glyph unicode="j" horiz-adv-x="1405" d="M116 386q13 43 56 68q29 17 59 17q16 0 32 -5q41 -10 62 -45q13 -24 13 -50q0 -16 -4 -31q-13 -43 -57 -70q-30 -17 -61 -17q-13 0 -26 3q-44 10 -65 49q-14 25 -14 51q0 15 5 30zM116 386q13 43 56 68q29 17 59 17q16 0 32 -5q41 -10 62 -45q13 -24 13 -50q0 -16 -4 -31 q-13 -43 -57 -70q-30 -17 -61 -17q-13 0 -26 3q-44 10 -65 49q-14 25 -14 51q0 15 5 30zM116 386q13 43 56 68q29 17 59 17q16 0 32 -5q41 -10 62 -45q13 -24 13 -50q0 -16 -4 -31q-13 -43 -57 -70q-30 -17 -61 -17q-13 0 -26 3q-44 10 -65 49q-14 25 -14 51q0 15 5 30z M116 386q13 43 56 68q29 17 59 17q16 0 32 -5q41 -10 62 -45q13 -24 13 -50q0 -16 -4 -31q-13 -43 -57 -70q-30 -17 -61 -17q-13 0 -26 3q-44 10 -65 49q-14 25 -14 51q0 15 5 30zM125 889q-4 15 -4 28q0 25 13 48q22 38 66 48q12 3 24 3q31 0 62 -18q43 -25 56 -68 q5 -16 5 -31q0 -26 -14 -51q-22 -38 -65 -48q-13 -3 -25 -3q-32 0 -63 18q-46 26 -55 74zM125 889q-4 15 -4 28q0 25 13 48q22 38 66 48q12 3 24 3q31 0 62 -18q43 -25 56 -68q5 -16 5 -31q0 -26 -14 -51q-22 -38 -65 -48q-13 -3 -25 -3q-32 0 -63 18q-46 26 -55 74z M125 889q-4 15 -4 28q0 25 13 48q22 38 66 48q12 3 24 3q31 0 62 -18q43 -25 56 -68q5 -16 5 -31q0 -26 -14 -51q-22 -38 -65 -48q-13 -3 -25 -3q-32 0 -63 18q-46 26 -55 74zM125 889q-4 15 -4 28q0 25 13 48q22 38 66 48q12 3 24 3q31 0 62 -18q43 -25 56 -68q5 -16 5 -31 q0 -26 -14 -51q-22 -38 -65 -48q-13 -3 -25 -3q-32 0 -63 18q-46 26 -55 74zM199 404l831 479l51 -85l-831 -480zM199 404l831 479l51 -85l-831 -480zM199 404l831 479l51 -85l-831 -480zM293 814l48 87l831 -479l-49 -88zM293 814l48 87l831 -479l-49 -88zM293 814l48 87 l831 -479l-49 -88zM1030 913q13 42 56 68q31 17 62 17q16 0 31 -4q41 -12 61 -47q14 -24 14 -50q0 -15 -5 -31q-13 -43 -56 -68q-31 -18 -62 -18l-26 4q-44 10 -66 47q-14 25 -14 51q0 15 5 31zM1030 913q13 42 56 68q31 17 62 17q16 0 31 -4q41 -12 61 -47q14 -24 14 -50 q0 -15 -5 -31q-13 -43 -56 -68q-31 -18 -62 -18l-26 4q-44 10 -66 47q-14 25 -14 51q0 15 5 31zM1030 913q13 42 56 68q31 17 62 17q16 0 31 -4q41 -12 61 -47q14 -24 14 -50q0 -15 -5 -31q-13 -43 -56 -68q-31 -18 -62 -18l-26 4q-44 10 -66 47q-14 25 -14 51q0 15 5 31z M1030 913q13 42 56 68q31 17 62 17q16 0 31 -4q41 -12 61 -47q14 -24 14 -50q0 -15 -5 -31q-13 -43 -56 -68q-31 -18 -62 -18l-26 4q-44 10 -66 47q-14 25 -14 51q0 15 5 31zM1038 359q-4 15 -4 29q0 25 13 47q22 39 65 49q13 3 25 3q31 0 62 -19q43 -24 57 -67q5 -16 5 -32 q0 -26 -14 -51q-23 -38 -66 -47q-12 -2 -24 -2q-31 0 -63 17q-45 27 -56 73zM1038 359q-4 15 -4 29q0 25 13 47q22 39 65 49q13 3 25 3q31 0 62 -19q43 -24 57 -67q5 -16 5 -32q0 -26 -14 -51q-23 -38 -66 -47q-12 -2 -24 -2q-31 0 -63 17q-45 27 -56 73zM1038 359 q-4 15 -4 29q0 25 13 47q22 39 65 49q13 3 25 3q31 0 62 -19q43 -24 57 -67q5 -16 5 -32q0 -26 -14 -51q-23 -38 -66 -47q-12 -2 -24 -2q-31 0 -63 17q-45 27 -56 73zM1038 359q-4 15 -4 29q0 25 13 47q22 39 65 49q13 3 25 3q31 0 62 -19q43 -24 57 -67q5 -16 5 -32 q0 -26 -14 -51q-23 -38 -66 -47q-12 -2 -24 -2q-31 0 -63 17q-45 27 -56 73z" />
<glyph unicode="k" horiz-adv-x="1253" d="M170 1010v87h478v-87h-478zM172 1014l101 28l495 -593l-69 -69zM423 130q0 52 35 85q30 28 72 28t73 -32.5t31 -80.5q0 -50 -31 -83t-75.5 -33t-74.5 32t-30 84zM488 121v761h97v-761h-97zM491 781v100h613v-100h-613zM607 1008v415h95v-415h-95zM646 470l363 364l93 -52 l-388 -388z" />
<glyph unicode="l" horiz-adv-x="1398" d="M168 838q-21 84 -21 158q0 163 101 276q97 95 185 95q59 0 115 -43q128 -80 136 -244q1 -24 1 -46q0 -139 -41 -263l-206 -730l-108 2l223 751q29 133 29 228q0 125 -51 182q-43 49 -96 49q-44 0 -96 -34q-69 -43 -97 -196q-1 -14 -2 -29q0 -68 31 -150q63 -112 207 -178 q160 -46 294 -46q80 0 150 16q189 44 268 126q64 79 73 176l-1 83q-1 128 -64 190q-43 49 -93 49q-36 0 -74 -26q-101 -71 -106 -219q-3 -27 -2 -54q0 -117 47 -252l248 -668h-122l-266 749q-21 102 -21 188q0 223 145 331q71 57 139 57q86 0 168 -91q92 -105 92 -279 q0 -52 -8 -110q-27 -152 -150 -247q-225 -139 -443 -139q-202 0 -399 119q-119 68 -185 219z" />
<glyph unicode="m" horiz-adv-x="1563" d="M102 1113q19 53 80 60l271 -271q-6 -67 -51 -67q-12 0 -27 5zM354 227v711h744v-711h-744zM454 328h539v510h-539v-510zM602 584q0 51 38 82q32 29 75 29q45 0 77 -32t32 -78q0 -51 -32 -82.5t-79 -31.5t-79 30.5t-32 82.5zM1010 256q8 70 53 82l295 -295 q-14 -60 -63 -60q-5 0 -11 1z" />
<glyph unicode="n" horiz-adv-x="1574" d="M102 732q4 271 231 466q189 141 449 141q258 0 446.5 -183.5t188.5 -461.5q0 -283 -190.5 -470t-460.5 -187q-272 9 -443 174q-219 228 -221 521zM226 705q6 -241 171 -387q136 -129 353 -129q232 0 388 130t168 370q-7 254 -179 404q-141 133 -347 133h-9 q-195 -3 -351 -121q-188 -136 -194 -400zM306 708q0 53 35 86q29 28 71.5 28t73 -32.5t30.5 -80.5q0 -51 -30.5 -84t-75 -33t-74.5 32t-30 84zM1005 705q0 53 35 85q30 29 72 29t73 -32.5t31 -80.5q0 -50 -31 -83t-75.5 -33t-74.5 31.5t-30 83.5z" />
<glyph unicode="o" horiz-adv-x="1252" d="M215 614q113 0 381 -56q173 -36 299 -37q69 0 123 11q3 -13 3 -24q0 -73 -140 -73q-15 0 -32 1q-196 10 -251.5 20t-335.5 72q-94 51 -94 72q0 15 46 15q0 -1 1 -1zM261 526l93 -5q108 -14 306 -155q195 -139 195 -250q0 -67 -21 -67q-14 0 -38 38q-54 87 -196.5 201 t-338.5 238zM287 1050q11 172 129 282q138 112 327 112q24 0 49 -2q323 -47 360 -320q3 -24 3 -47q0 -166 -135 -264q-67 -58 -185 -58q-37 0 -80 6q-83 17 -152 85t-73 177q2 105 69 165q58 52 130 52q11 0 22 -1h12q71 0 120 -55q33 -37 32 -81q0 -27 -12 -57 q-21 -25 -39 -25q-19 0 -35 26q3 16 3 29q0 73 -96 85q-111 -18 -111 -143q0 -10 1 -22q23 -104 130 -138q48 -14 88 -14q50 0 89 21q71 37 107 109q19 37 19 87q0 47 -17 104q-59 134 -184 163q-58 19 -126 19q-49 0 -103 -10q-91 -22 -151 -75t-82 -184q2 -144 51.5 -225 t210.5 -175q189 -92 309 -120q69 -16 69 -47q0 -23 -38 -53q-394 101 -576 279q-128 131 -135 315zM884 285q0 49 34 78q30 26 71 26t70 -29.5t29 -73.5q0 -47 -29 -76.5t-73 -29.5t-73 29t-29 76z" />
<glyph unicode="p" horiz-adv-x="1613" d="M102 910l522 -817q26 -24 46 -24q43 0 56 113l-456 728h-168zM522 790q12 -108 117 -122q95 8 119 114q-10 107 -119 116q-103 -5 -117 -108zM563 758l144 1v29q0 216 57 346q61 138 167 181q47 19 91 19q56 0 108 -30q92 -54 133.5 -175t46.5 -331h-246v-123h385 q0 269 -40 431t-132 250.5t-222 99.5q-20 2 -40 2q-107 0 -201 -53q-112 -63 -184 -217q-67 -147 -67 -401v-29zM629 206q-6 -39 -6 -66q0 -67 37 -67q19 0 46 16l512 705l-152 2zM1106 730l88 24z" />
<glyph unicode="q" horiz-adv-x="1425" d="M116 386q13 43 56 68q29 17 59 17q16 0 32 -5q41 -10 62 -45q13 -24 13 -50q0 -16 -4 -31q-13 -43 -57 -70q-30 -17 -61 -17q-13 0 -26 3q-44 10 -65 49q-14 25 -14 51q0 15 5 30zM116 386q13 43 56 68q29 17 59 17q16 0 32 -5q41 -10 62 -45q13 -24 13 -50q0 -16 -4 -31 q-13 -43 -57 -70q-30 -17 -61 -17q-13 0 -26 3q-44 10 -65 49q-14 25 -14 51q0 15 5 30zM116 386q13 43 56 68q29 17 59 17q16 0 32 -5q41 -10 62 -45q13 -24 13 -50q0 -16 -4 -31q-13 -43 -57 -70q-30 -17 -61 -17q-13 0 -26 3q-44 10 -65 49q-14 25 -14 51q0 15 5 30z M116 386q13 43 56 68q29 17 59 17q16 0 32 -5q41 -10 62 -45q13 -24 13 -50q0 -16 -4 -31q-13 -43 -57 -70q-30 -17 -61 -17q-13 0 -26 3q-44 10 -65 49q-14 25 -14 51q0 15 5 30zM125 889q-4 15 -4 28q0 25 13 48q22 38 66 48q12 3 24 3q31 0 62 -18q43 -25 56 -68 q5 -16 5 -31q0 -26 -14 -51q-22 -38 -65 -48q-13 -3 -25 -3q-32 0 -63 18q-46 26 -55 74zM125 889q-4 15 -4 28q0 25 13 48q22 38 66 48q12 3 24 3q31 0 62 -18q43 -25 56 -68q5 -16 5 -31q0 -26 -14 -51q-22 -38 -65 -48q-13 -3 -25 -3q-32 0 -63 18q-46 26 -55 74z M125 889q-4 15 -4 28q0 25 13 48q22 38 66 48q12 3 24 3q31 0 62 -18q43 -25 56 -68q5 -16 5 -31q0 -26 -14 -51q-22 -38 -65 -48q-13 -3 -25 -3q-32 0 -63 18q-46 26 -55 74zM125 889q-4 15 -4 28q0 25 13 48q22 38 66 48q12 3 24 3q31 0 62 -18q43 -25 56 -68q5 -16 5 -31 q0 -26 -14 -51q-22 -38 -65 -48q-13 -3 -25 -3q-32 0 -63 18q-46 26 -55 74zM199 404l831 479l51 -85l-831 -480zM199 404l831 479l51 -85l-831 -480zM199 404l831 479l51 -85l-831 -480zM293 814l48 87l831 -479l-49 -88zM293 814l48 87l831 -479l-49 -88zM293 814l48 87 l831 -479l-49 -88zM585 103q0 54 35 86q30 30 70 30q44 0 74.5 -32.5t30.5 -83.5q0 -49 -30.5 -82t-75.5 -33t-74.5 32.5t-29.5 82.5zM585 103q0 54 35 86q30 30 70 30q44 0 74.5 -32.5t30.5 -83.5q0 -49 -30.5 -82t-75.5 -33t-74.5 32.5t-29.5 82.5zM585 103q0 54 35 86 q30 30 70 30q44 0 74.5 -32.5t30.5 -83.5q0 -49 -30.5 -82t-75.5 -33t-74.5 32.5t-29.5 82.5zM585 103q0 54 35 86q30 30 70 30q44 0 74.5 -32.5t30.5 -83.5q0 -49 -30.5 -82t-75.5 -33t-74.5 32.5t-29.5 82.5zM586 1159q0 54 35 86q30 30 71 30q43 0 74 -32.5t31 -83.5 q0 -49 -31 -82t-75.5 -33t-74.5 32.5t-30 82.5zM586 1159q0 54 35 86q30 30 71 30q43 0 74 -32.5t31 -83.5q0 -49 -31 -82t-75.5 -33t-74.5 32.5t-30 82.5zM586 1159q0 54 35 86q30 30 71 30q43 0 74 -32.5t31 -83.5q0 -49 -31 -82t-75.5 -33t-74.5 32.5t-30 82.5zM586 1159 q0 54 35 86q30 30 71 30q43 0 74 -32.5t31 -83.5q0 -49 -31 -82t-75.5 -33t-74.5 32.5t-30 82.5zM642 103v959h99v-959h-99zM642 103v959h99v-959h-99zM642 103v959h99v-959h-99zM1030 913q13 42 56 68q31 17 62 17q16 0 31 -4q41 -12 61 -47q14 -24 14 -50q0 -15 -5 -31 q-13 -43 -56 -68q-31 -18 -62 -18l-26 4q-44 10 -66 47q-14 25 -14 51q0 15 5 31zM1030 913q13 42 56 68q31 17 62 17q16 0 31 -4q41 -12 61 -47q14 -24 14 -50q0 -15 -5 -31q-13 -43 -56 -68q-31 -18 -62 -18l-26 4q-44 10 -66 47q-14 25 -14 51q0 15 5 31zM1030 913 q13 42 56 68q31 17 62 17q16 0 31 -4q41 -12 61 -47q14 -24 14 -50q0 -15 -5 -31q-13 -43 -56 -68q-31 -18 -62 -18l-26 4q-44 10 -66 47q-14 25 -14 51q0 15 5 31zM1030 913q13 42 56 68q31 17 62 17q16 0 31 -4q41 -12 61 -47q14 -24 14 -50q0 -15 -5 -31q-13 -43 -56 -68 q-31 -18 -62 -18l-26 4q-44 10 -66 47q-14 25 -14 51q0 15 5 31zM1038 359q-4 15 -4 29q0 25 13 47q22 39 65 49q13 3 25 3q31 0 62 -19q43 -24 57 -67q5 -16 5 -32q0 -26 -14 -51q-23 -38 -66 -47q-12 -2 -24 -2q-31 0 -63 17q-45 27 -56 73zM1038 359q-4 15 -4 29 q0 25 13 47q22 39 65 49q13 3 25 3q31 0 62 -19q43 -24 57 -67q5 -16 5 -32q0 -26 -14 -51q-23 -38 -66 -47q-12 -2 -24 -2q-31 0 -63 17q-45 27 -56 73zM1038 359q-4 15 -4 29q0 25 13 47q22 39 65 49q13 3 25 3q31 0 62 -19q43 -24 57 -67q5 -16 5 -32q0 -26 -14 -51 q-23 -38 -66 -47q-12 -2 -24 -2q-31 0 -63 17q-45 27 -56 73zM1038 359q-4 15 -4 29q0 25 13 47q22 39 65 49q13 3 25 3q31 0 62 -19q43 -24 57 -67q5 -16 5 -32q0 -26 -14 -51q-23 -38 -66 -47q-12 -2 -24 -2q-31 0 -63 17q-45 27 -56 73z" />
<glyph unicode="r" horiz-adv-x="1267" d="M136 -8h181l312 585l326 -585h188l-486 820q-14 26 -30 26q-14 0 -29 -23zM152 -10h982l-72 112h-847zM181 771q34 -394 454 -431q434 44 445 454q-47 394 -438 419q-442 -17 -461 -442zM322 790q26 296 304 296h7q284 -11 315 -296q-14 -288 -311 -308q-297 20 -315 308 zM505 800q15 -107 132 -107q112 0 120 111q-8 110 -128 122q-116 -12 -124 -126z" />
<glyph unicode="s" horiz-adv-x="992" d="M170 1241l126 125q156 -81 218 -190q90 117 206 194l136 -136q-172 -38 -251 -128q176 -139 195 -397q-15 -259 -201 -404q93 -87 217 -115l-107 -108q-114 56 -209 166q-90 -98 -191 -164l-121 110q118 49 211 122q-167 148 -185 385q0 262 210 415q-96 92 -254 125z M330 784q-10 -35 -10 -75q0 -61 24 -135q38 -124 161 -207q119 85 157 193q25 71 25 134q-1 32 -7 62q-20 88 -65 161t-105 112q-68 -43 -111 -100.5t-69 -144.5zM399 701q0 53 35 85q30 29 72 29t73 -32.5t31 -80.5q0 -50 -31 -83.5t-75.5 -33.5t-74.5 32t-30 84z" />
<glyph unicode="t" horiz-adv-x="1475" d="M170 326q10 96 107 111q78 -3 107 -43q22 -31 22 -76q0 -14 -2 -29q-33 -83 -123 -83h-4q-105 17 -107 120zM220 347l457 298v397h116v-398l483 -324l-75 -71l-461 306l-454 -273zM615 1097q9 95 108 110q77 -3 107 -43q22 -30 22 -74q0 -15 -3 -32q-33 -82 -122 -82h-4 q-105 18 -108 121zM1090 330q10 96 107 111q78 -3 107 -43q22 -31 22 -76q0 -14 -2 -29q-33 -83 -123 -83h-4q-105 17 -107 120z" />
<glyph unicode="u" horiz-adv-x="1072" d="M123 180q0 -52 30 -84t75 -32t75.5 33t30.5 84q0 48 -30.5 80.5t-72.5 32.5t-73 -28q-35 -33 -35 -86zM195 886q69 -68 177 -68q37 0 79 8q163 32 201 140q7 20 7 43q0 101 -140 257q-55 35 -79 35q-19 0 -18 -21q0 -18 13 -50q129 -132 139 -198q1 -5 0 -11 q0 -59 -97 -102q-54 -24 -99 -24q-43 0 -79 22q-35 22 -34 37q0 16 40 24q36 7 85 7q56 1 128 -9q135 -18 232 -82q96 -65 104 -176q0 -5 1 -10q0 -107 -153 -225l46 -52q162 91 190 230q8 40 8 74q0 87 -50 143q-70 78 -140 117t-234 65q-54 9 -103 9q-102 -1 -189 -37 q-74 -32 -74 -75q0 -32 39 -71zM257 95q137 -61 259 -61q18 0 36 2q138 10 212 51t120 126q25 45 24 99q0 48 -20 103q-42 117 -247 210q-23 2 -40 2q-43 0 -43 -16q0 -14 33 -40q133 -101 173 -153q34 -45 34 -98v-18q-6 -64 -80 -108q-72 -44 -178 -50h-16q-100 0 -236 64 q-67 -18 -67 -53q0 -25 36 -60zM302 1254q0 -52 30 -84t74.5 -32t75.5 33t31 83q0 48 -31 81t-73 33t-72 -29q-35 -33 -35 -85zM372 542q-11 -21 -11 -44q0 -34 25 -72q42 -64 152 -66h5q107 0 219 79l-60 47q-48 -32 -88 -42q-26 -6 -61 -6q-18 0 -39 2q-60 6 -64 56v5 q0 46 53 59q33 8 55 8q16 0 26 -4q25 -10 48 -26t38.5 -28t83.5 -76l48 57q-25 63 -89 103.5t-137 47.5q-15 1 -30 1q-54 -1 -94 -21q-52 -26 -80 -80z" />
<glyph unicode="v" horiz-adv-x="1261" d="M102 460l580 2l-1 336h-100v-232h-363l-1 597l787 3v-1020h-893v-121h1015v107v1158l-1023 1zM535 810q0 -49 29.5 -82.5t73.5 -33.5q42 0 71 32.5t29 83.5q0 52 -34 85q-28 31 -68 31q-42 0 -71.5 -33t-29.5 -83z" />
<glyph unicode="w" horiz-adv-x="1291" d="M103 762v82h1007v-83zM103 796l67 42l216 -432q-5 -48 -43 -48q-11 0 -25 4l-168 339q-48 35 -47 95zM480 1149q0 53 35 85q31 29 72 29q43 0 73.5 -32.5t30.5 -80.5q0 -51 -30.5 -84t-75.5 -33t-75 32t-30 84zM554 53v1065q18 72 38.5 72t44.5 -72v-1052 q-22 -33 -46 -33q-18 0 -37 20zM556 70l479 763l72 -35q1 -5 1 -9q0 -47 -58 -91l-432 -673q-18 -5 -31 -5q-33 0 -33 33q0 8 2 17z" />
<glyph unicode="x" horiz-adv-x="1661" d="M105 638q2 -102 41.5 -204t85.5 -165t137 -139q163 -105 349 -105q26 0 53 2q134 14 221.5 60.5t142 103.5t87.5 127q32 72 44 146q11 66 11 117q-1 7 -1 13q-2 56 -22.5 133t-77 144.5t-126.5 105.5q-69 39 -141 55q-35 8 -79 8q-48 0 -106 -10q-112 -18 -189 -75 t-128.5 -146t-60.5 -238l2 -20h1134l1 102h-1011q18 139 106 208t184 75q22 1 42 2q70 0 124 -18q70 -22 128 -70t88 -116q31 -69 31 -182q-1 -112 -73 -228q-72 -117 -244 -174q-74 -16 -141 -15q-188 0 -324 121q-106 102 -153 236q-29 84 -30 169q0 51 11 103 q28 139 112.5 247.5t200.5 158.5q97 42 242 43q29 0 59 -2v111q-33 3 -63 3q-40 0 -75 -5q-153 -14 -272 -89.5t-181 -159t-88 -146.5t-40 -136q-11 -60 -12 -123q0 -14 1 -28zM714 1252q0 -42 32.5 -72.5t80.5 -30.5q51 0 84 30.5t33 75t-32 74.5t-83 30q-54 0 -87 -35 q-28 -30 -28 -72z" />
<glyph unicode="y" horiz-adv-x="987" d="M204 638l2 101l630 230v-97zM206 631v109l626 -272v-94zM206 1194l629 -225v-94l-626 203zM207 1194l628 87l1 -107l-626 -85zM221 162v108l631 -112v-121zM223 174v96l612 196l-3 -91z" />
<glyph unicode="z" horiz-adv-x="1502" d="M102 563q20 287 205 320l224 -1h1q82 0 82 156v175h202l2 -173q0 -157 82 -157h242q208 -46 214 -353q0 -254 -181.5 -421t-438.5 -167q-260 8 -422 155q-210 205 -212 466zM222 539q4 -215 161 -345q130 -116 338 -116q220 0 368.5 116t160.5 332q-7 224 -133 224h-3 h-242h-4q-108 0 -147 193q-47 -193 -161 -193h-8h-192h-9q-123 0 -129 -211zM306 534q0 48 52 77q46 26 110 26q65 0 110.5 -29.5t45.5 -71.5q0 -45 -45.5 -75t-115.5 -30q-66 0 -111.5 29t-45.5 74zM567 1295q12 105 135 122q96 -3 132 -47q28 -34 28 -84q0 -15 -3 -32 q-43 -92 -155 -92h-2q-131 19 -135 133zM843 539q0 47 55 78q46 25 108 25q64 0 111 -29t47 -73q0 -45 -47 -75t-113 -30q-70 0 -115.5 29t-45.5 75z" />
<glyph unicode="&#xad;" d="M102 759v148h525v-148h-525zM479 842q12 119 135 138q97 -4 133.5 -54t24.5 -132q-43 -105 -158 -103q-131 22 -135 151z" />
<glyph unicode="&#x2000;" horiz-adv-x="969" />
<glyph unicode="&#x2001;" horiz-adv-x="1938" />
<glyph unicode="&#x2002;" horiz-adv-x="969" />
<glyph unicode="&#x2003;" horiz-adv-x="1938" />
<glyph unicode="&#x2004;" horiz-adv-x="646" />
<glyph unicode="&#x2005;" horiz-adv-x="484" />
<glyph unicode="&#x2006;" horiz-adv-x="323" />
<glyph unicode="&#x2007;" horiz-adv-x="323" />
<glyph unicode="&#x2008;" horiz-adv-x="242" />
<glyph unicode="&#x2009;" horiz-adv-x="387" />
<glyph unicode="&#x200a;" horiz-adv-x="107" />
<glyph unicode="&#x2010;" d="M102 759v148h525v-148h-525zM479 842q12 119 135 138q97 -4 133.5 -54t24.5 -132q-43 -105 -158 -103q-131 22 -135 151z" />
<glyph unicode="&#x2011;" d="M102 759v148h525v-148h-525zM479 842q12 119 135 138q97 -4 133.5 -54t24.5 -132q-43 -105 -158 -103q-131 22 -135 151z" />
<glyph unicode="&#x2012;" d="M102 759v148h525v-148h-525zM479 842q12 119 135 138q97 -4 133.5 -54t24.5 -132q-43 -105 -158 -103q-131 22 -135 151z" />
<glyph unicode="&#x2013;" horiz-adv-x="1201" d="M102 759v148h799v-148h-799zM676 842q18 119 205 138q148 -4 203.5 -54t36.5 -132q-65 -105 -240 -103q-199 22 -205 151z" />
<glyph unicode="&#x2014;" horiz-adv-x="2225" d="M102 759v148h1598v-148h-1598zM1249 842q37 119 411 138q295 -4 406 -54t75 -132q-131 -105 -481 -103q-399 22 -411 151z" />
<glyph unicode="&#x201c;" horiz-adv-x="638" d="M65 1746q43 75 115 3q78 -9 104.5 19t50 105.5t163.5 62.5q128 -38 101 -281q11 -193 -35 -218q-80 -9 -78 104l14 214q-34 58 -64 23t-44 -63t-41 -60t-63 -41l-66 -14q-30 -7 -32 -94q18 -168 -10 -228q-35 -43 -95 -16q-14 79 -5 159t-15 325z" />
<glyph unicode="&#x201d;" horiz-adv-x="638" d="M92 1655q-11 -193 35 -218q80 -9 78 104l-14 214q34 58 64 23t44 -63t41 -60t63 -41l66 -14q30 -7 32 -94q-18 -168 10 -228q35 -43 95 -16q14 79 5 159t15 325q-43 75 -115 3q-78 -9 -104.5 19t-50 105.5t-163.5 62.5q-128 -38 -101 -281z" />
<glyph unicode="&#x202f;" horiz-adv-x="387" />
<glyph unicode="&#x205f;" horiz-adv-x="484" />
<glyph unicode="&#xe000;" horiz-adv-x="1360" d="M0 0v1360h1360v-1360h-1360z" />
</font>
</defs>
</svg>
