<svg xmlns="http://www.w3.org/2000/svg">
<defs>
<font id="FuturamaAlienAlphabetTwo" horiz-adv-x="2195" >
  <font-face 
    font-family="Futurama Alien Alphabet Two"
    font-weight="400"
    font-stretch="normal"
    units-per-em="2048"
    panose-1="5 1 1 1 1 1 1 1 1 1"
    ascent="1638"
    descent="-410"
    x-height="1470.38"
    cap-height="1849"
    bbox="7 -13.3052 3247 1853.31"
    underline-thickness="100"
    underline-position="-50"
    unicode-range="U+0008-U+007F"
  />
<missing-glyph horiz-adv-x="3570" 
d="M283 1840h2958l6 -7v-1815l-6 -6h-2958l-6 6v1815zM341 1776v-1700h2842v1700h-2842zM2124 1615l119 -0.000976562c4.66699 -3.33301 48.667 -111.666 132 -324.999l-3 -4h-58c-6 0 -16.667 20.667 -32 62h-119c-14.667 -41.333 -24.334 -62 -29 -62h-64v4l112 276h-58
l-6 7v35zM2768 1615l119 -0.000976562c4 -3.33301 48 -111.666 132 -324.999l-3 -4h-58c-6 0 -16.667 20.667 -32 62h-120c-14.667 -41.333 -24 -62 -28 -62h-65v4l113 276h-58l-7 7v35zM2395 1611l138 -115h3l139 112h3v-315l-7 -7h-51l-7 7v190
c-48 -38.667 -74.667 -58 -80 -58l-77 58v-190l-7 -7h-54l-7 7v312zM850 1608h61.001l6 -6v-184c0 -32.667 12 -55 36 -67l16 -3h16c29.333 0 46.333 18 51 54v200l7 6h58l6 -6v-168l4 -29c0 -44.667 -14 -76.667 -42 -96c-30 -17.333 -59 -26 -87 -26h-13
c-54.667 0 -94.334 23.667 -119.001 71l-7 61v187zM1461 1608h61.001l7 -6v-184c0 -32.667 11.667 -55 35 -67l16 -3h16c30 0 47.333 18 52 54v200l6 6h58l7 -6v-168l3 -29c0 -44.667 -14 -76.667 -42 -96c-30 -17.333 -59 -26 -87 -26h-13
c-54.667 0 -94.334 23.667 -119.001 71l-6 61v187zM567.002 1605h238l6 -6v-42l-6 -7h-174v-74h148l6 -6v-42l-6 -6h-148v-129l-6 -7h-58l-7 7v129h-32l-6 6v42l6 6h32v123zM1149 1605h267l7 -6v-45l-7 -7h-100v-254l-6 -7h-55l-6 7v254h-100l-6 7v45zM1793 1605h131.999
c62 0 97.333 -28 106 -84l3 -22c0 -46 -23.667 -79.333 -71 -100l61 -109l-3 -4h-58c-3.33301 0 -23.666 36.667 -60.999 110h-58v-103l-6 -7h-45l-7 7v100h-29l-6 6v52l6 6h29v142zM1844 1547v-90h71c38.667 0 58 13 58 39v16c0 20 -15 31.667 -45 35h-84zM2189 1405

<glyph glyph-name=".notdef" horiz-adv-x="3570" 
d="M283 1840h2958l6 -7v-1815l-6 -6h-2958l-6 6v1815zM341 1776v-1700h2842v1700h-2842zM2124 1615l119 -0.000976562c4.66699 -3.33301 48.667 -111.666 132 -324.999l-3 -4h-58c-6 0 -16.667 20.667 -32 62h-119c-14.667 -41.333 -24.334 -62 -29 -62h-64v4l112 276h-58
l-6 7v35zM2768 1615l119 -0.000976562c4 -3.33301 48 -111.666 132 -324.999l-3 -4h-58c-6 0 -16.667 20.667 -32 62h-120c-14.667 -41.333 -24 -62 -28 -62h-65v4l113 276h-58l-7 7v35zM2395 1611l138 -115h3l139 112h3v-315l-7 -7h-51l-7 7v190
c-48 -38.667 -74.667 -58 -80 -58l-77 58v-190l-7 -7h-54l-7 7v312zM850 1608h61.001l6 -6v-184c0 -32.667 12 -55 36 -67l16 -3h16c29.333 0 46.333 18 51 54v200l7 6h58l6 -6v-168l4 -29c0 -44.667 -14 -76.667 -42 -96c-30 -17.333 -59 -26 -87 -26h-13
c-54.667 0 -94.334 23.667 -119.001 71l-7 61v187zM1461 1608h61.001l7 -6v-184c0 -32.667 11.667 -55 35 -67l16 -3h16c30 0 47.333 18 52 54v200l6 6h58l7 -6v-168l3 -29c0 -44.667 -14 -76.667 -42 -96c-30 -17.333 -59 -26 -87 -26h-13
c-54.667 0 -94.334 23.667 -119.001 71l-6 61v187zM567.002 1605h238l6 -6v-42l-6 -7h-174v-74h148l6 -6v-42l-6 -6h-148v-129l-6 -7h-58l-7 7v129h-32l-6 6v42l6 6h32v123zM1149 1605h267l7 -6v-45l-7 -7h-100v-254l-6 -7h-55l-6 7v254h-100l-6 7v45zM1793 1605h131.999
c62 0 97.333 -28 106 -84l3 -22c0 -46 -23.667 -79.333 -71 -100l61 -109l-3 -4h-58c-3.33301 0 -23.666 36.667 -60.999 110h-58v-103l-6 -7h-45l-7 7v100h-29l-6 6v52l6 6h29v142zM1844 1547v-90h71c38.667 0 58 13 58 39v16c0 20 -15 31.667 -45 35h-84zM2189 1405
h67.001l-32 87c-4.66699 0 -16.334 -29 -35.001 -87zM2832 1405h68l-32 87c-5.33301 0 -17.333 -29 -36 -87zM882.002 1158l119 -0.000976562c4.66699 -3.33301 48.667 -111.666 132 -324.999l-3 -4h-58c-6 0 -16.667 20.667 -32 62h-119c-15.333 -41.333 -25 -62 -29 -62
h-65v4l113 276h-58l-6 7v35zM509.002 1154l138 -115h3l139 112h3v-315l-7 -7h-51l-6 7v190c-48 -38.667 -75 -58 -81 -58l-77 58v-190l-7 -7h-54l-7 7v312zM2150 1151h61l7 -6v-184c0 -32.667 11.667 -55 35 -67l16 -3h16c30 0 47.333 18 52 54v200l6 6h58l6 -6v-168l4 -29
c0 -44.667 -14 -76.667 -42 -96c-30 -17.333 -59 -26 -87 -26h-13c-54.667 0 -94.334 23.667 -119 71l-6 61v187zM1152 1148h152c82.667 0 129.667 -52.667 141 -158c0 -76.667 -34.333 -128 -103 -154c-9.33301 -4.66699 -26.333 -7 -51 -7h-139l-6 7v306zM1522 1148h58
l7 -6v-123h106v123l6 6h58l7 -6v-306l-7 -7h-58l-6 7v122h-106v-122l-7 -7h-58l-6 7v125h-29l-6 7v45l6 6h29v123zM1941 1148h26.001c55.333 0 100.333 -31 134.999 -93c6 -9.33301 11.333 -31 16 -65c0 -58.667 -31.333 -106.667 -94 -144
c-29.333 -11.333 -51.666 -17 -66.999 -17c-78.667 0 -132.334 41 -161.001 123l-3 35v7c0 72.667 39.667 123 119 151zM2555 1148h29.001c43.333 0 82 -15 116 -45l-42 -32h-6c-22.667 17.333 -49.334 26 -80 26c-41.333 0 -62 -14 -62 -42c0 -19.333 41 -33.333 123 -42
c47.333 -17.333 71 -44.333 71 -81c0 -45.333 -27 -77.333 -81 -96l-68 -10c-32.667 0 -70 15 -112 45v3l42 42h3c25.333 -21.333 47.666 -32 66.999 -32h29c36.667 4 55 18 55 42c0 20.667 -44 37.667 -132 51c-42.667 22 -64 46.667 -64 74c0 56 37.333 88.333 112 97z
M2781 1148h235l6 -6v-42l-6 -7h-177v-74h151l6 -6v-42l-6 -6h-151v-81h177l6 -6v-42l-6 -7h-235l-7 7v129h-35l-7 6v42l7 6h35v123zM1217 1093v-209.001h67c62.667 0 94 30 94 90v36c0 46.667 -30 74.334 -90 83.001h-71zM1857 993.996v-13c14.667 -58 43.667 -87 87 -87
l10 -3c64 11.333 96 41.333 96 90v22c-12 56 -43 84 -93 84h-3c-64.667 -8 -97 -39 -97 -93zM946.004 947.996h68l-32 87c-5.33301 0 -17.333 -29 -36 -87zM525.004 330.996c8 0 14.3311 -23.667 18.998 -71h3c8.66699 47.333 16.334 71 23.001 71h10
c5.33301 0 12.666 -23.667 21.999 -71h3c5.33301 47.333 12 71 20 71h25c8 0 14.667 -23.667 20 -71h3c8.66699 47.333 16 71 22 71h10c6 0 13.667 -23.667 23 -71h3c4.66699 47.333 11 71 19 71h26c8 0 14.333 -23.667 19 -71h3c8.66699 47.333 16.334 71 23.001 71h10
c5.33301 0 12.666 -23.667 21.999 -71h3c5.33301 47.333 12 71 20 71h6l3 -4h3c-11.333 -60 -19.666 -90 -24.999 -90h-13c-5.33301 0 -13 24.667 -23 74h-3c-9.33301 -49.333 -16.666 -74 -21.999 -74h-13c-6.66699 0 -14.334 29 -23.001 87h-6c-8 -58 -15.667 -87 -23 -87
h-13c-5.33301 0 -12.666 24.667 -21.999 74h-3c-10 -49.333 -17.667 -74 -23 -74h-13c-6 0 -13.333 29 -22 87h-7c-8 -58 -15.333 -87 -22 -87h-13c-5.33301 0 -13 24.667 -23 74h-3c-9.33301 -49.333 -16.666 -74 -21.999 -74h-13c-4.66699 0 -13.334 30 -26.001 90l3 4h10
zM940.002 330.996h48l7 -7v-3l-7 -6h-35v-23h29l6 -6v-4l-6 -6h-29v-32l-7 -7h-6l-6 7v80zM1017 330.996h7l6 -7v-51c0 -13.333 6.33301 -20 19 -20c10.667 0 16 6.66699 16 20v51l7 7h6l7 -7v-51c0 -24 -12 -36 -36 -36h-3c-23.333 0 -35 12 -35 36v51zM1104 330.996h58
l6 -7v-3l-6 -6h-19v-71l-7 -7h-6l-7 7v71h-19l-6 6v3zM1188 330.996h6l7 -7v-51c0 -13.333 6.33301 -20 19 -20c10.667 0 16 6.66699 16 20v51l6 7h7l6 -7v-51c0 -24 -11.667 -36 -35 -36h-3c-24 0 -36 12 -36 36v51zM1281 330.996h42c17.333 0 26 -8.66699 26 -26
c-2 -17.333 -9.66699 -26 -23 -26l26 -35v-7h-16c-16 26 -29 39 -39 39h-3v-32l-6 -7h-7l-6 7v80zM1394 330.996h15.999c5.33301 0 16 -31.333 32 -94h-13c-4.66699 0 -8 7.66699 -10 23h-35c-1.33301 -15.333 -4.66602 -23 -9.99902 -23h-9l-3 3h-4
c18.667 58.667 30.667 89 36 91zM1461 330.996h16.001c7.33301 0 14 -23.667 20 -71h3c6 47.333 12.333 71 19 71h16l7 -7v-80l-7 -7h-3l-6 7v67h-4c-8 -49.333 -15.333 -74 -22 -74h-3c-6.66699 0 -14.334 24.667 -23.001 74h-3v-67l-6 -7h-4l-6 7v80zM1587 330.996h15.999
c5.33301 0 16 -31.333 32 -94h-13c-4.66699 0 -7.66699 7.66699 -9 23h-36c-1.33301 -15.333 -4.66602 -23 -9.99902 -23h-9l-3 3h-4c18.667 58.667 30.667 89 36 91zM1696 330.996h16.001c7.33301 0 14 -23.667 20 -71h3c6 47.333 12.333 71 19 71h16l7 -7v-80l-7 -7h-3
l-6 7v67h-4c-8.66699 -49.333 -16 -74 -22 -74h-3c-6.66699 0 -14.334 24.667 -23.001 74h-3v-67l-7 -7h-3l-6 7v80zM1822 330.996h15.999c5.33301 0 16 -31.333 32 -94h-13c-4.66699 0 -8 7.66699 -10 23h-35c-1.33301 -15.333 -4.66602 -23 -9.99902 -23h-9l-3 3h-4
c18.667 58.667 30.667 89 36 91zM1889 330.996h36c23.333 0 35 -17.333 35 -52c0 -28 -11.667 -42 -35 -42h-36l-6 7v80zM1983 330.996h6l7 -7v-29h35v29l6 7h7l6 -7v-80l-6 -7h-7l-6 7v35h-35v-35l-7 -7h-6l-7 7v80zM2105 330.996h10.001c22.667 0 35.334 -15 38 -45v-4
c-2.66699 -30 -15.334 -45 -38.001 -45h-10c-22.667 0 -35.667 15 -39 45v4c3.33301 30 16.333 45 39 45zM2176 330.996h6l7 -7v-51c0 -13.333 6.33301 -20 19 -20c10.667 0 16 6.66699 16 20v51l6 7h7l6 -7v-51c0 -24 -11.667 -36 -35 -36h-3c-24 0 -36 12 -36 36v51z
M2288 330.996l7 -0.000976562c23.333 -2 35 -10.667 35 -26l-3 -3h-10l-16 13h-6l-16 -4v-6c1.33301 -4.66699 16.333 -11 45 -19l9 -13v-7c0 -19.333 -11.667 -29 -35 -29h-3c-21.333 0 -34.333 8.66699 -39 26l16 6l16 -16h16l10 10v3
c-1.33301 4.66699 -16.333 11.334 -45 20.001l-10 12v13c8 13.333 17.667 20 29 20zM2356 330.995h55l6 -7v-3l-6 -6h-42v-20h38l7 -6v-3l-7 -7h-38v-26h45l6 -6v-3l-6 -7h-58l-6 7v80zM2507 330.995h3c19.333 0 32.333 -8.66699 39 -26l-16 -7l-16 17h-13
c-10.667 -6 -16 -14.667 -16 -26v-10c0 -11.333 5.33301 -20 16 -26h3c12 0 20.667 6.66699 26 20c10.667 -2.66699 16 -6 16 -10c-6.66699 -17.333 -19.667 -26 -39 -26h-3c-22.667 0 -35.334 15 -38 45v4c2.66699 30 15.334 45 38 45zM2601 330.995h9
c22.667 0 35.667 -15 39 -45v-4c-3.33301 -30 -16.333 -45 -39 -45h-9c-23.333 0 -36.333 15 -39 45v4c2.66699 30 15.667 45 39 45zM2671 330.995h16c7.33301 0 14 -23.667 20 -71h3c6 47.333 12.333 71 19 71h16l7 -7v-80l-7 -7h-3l-6 7v67h-4
c-8 -49.333 -15.333 -74 -22 -74h-3c-6.66699 0 -14.334 24.667 -23 74h-3v-67l-6 -7h-4l-6 7v80zM2832 330.995h16c6 0 17 -31.333 33 -94h-13c-5.33301 0 -8.66602 7.66699 -10 23h-35c-2 -15.333 -5.33301 -23 -10 -23h-10l-3 3h-3c18.667 58.667 30.334 89 35 91z
M2900 330.995h42c16.667 0 25 -8.66699 25 -26c-1.33301 -17.333 -8.66602 -26 -22 -26l26 -35v-7h-16c-16 26 -29 39 -39 39h-3v-32l-7 -7h-6l-7 7v80zM1294 314.995v-23h26l9 10v9l-16 4h-19zM1400 314.995l-10 -39h23l-10 39h-3zM1593 314.995l-9 -39h22l-10 39h-3z
M1828 314.995l-9 -39h22l-10 39h-3zM1902 314.995v-62h16c15.333 0 23 7.66699 23 23v10c0 19.333 -7.66699 29 -23 29h-16zM2086 288.995v-3c0 -22 8.33301 -33 25 -33c13.333 0 21 8.66699 23 26v10c0 17.333 -8.66699 26 -26 26c-13.333 0 -20.666 -8.66699 -22 -26z
M2581 288.995v-3c0 -22 8.66699 -33 26 -33c13.333 0 20.666 8.66699 22 26v10c0 17.333 -8.33301 26 -25 26c-13.333 0 -21 -8.66699 -23 -26zM2839 314.995l-10 -39h23l-10 39h-3zM2913 314.995v-23h25l10 10v9l-16 4h-19zM1651 278.995h23l6 -6v-4l-6 -6h-23l-6 6v4z
M905.002 256.995h6l6 -7v-6l-6 -7h-6l-7 7v6zM2443 256.995h6l7 -7v-6l-7 -7h-6l-7 7v6zM2778 256.995h6l6 -7v-6l-6 -7h-6l-7 7v6z" />
    <glyph glyph-name=".null" horiz-adv-x="0" 
 />
    <glyph glyph-name=".null" horiz-adv-x="0" 
 />
    <glyph glyph-name=".null" horiz-adv-x="0" 
 />
    <glyph glyph-name="nonmarkingreturn" unicode="&#x9;" horiz-adv-x="1495" 
 />
    <glyph glyph-name="nonmarkingreturn" unicode="&#xd;" horiz-adv-x="1495" 
 />
    <glyph glyph-name="space" unicode=" " horiz-adv-x="1500" 
 />
    <glyph glyph-name="space" unicode="&#xa0;" horiz-adv-x="1500" 
 />
    <glyph glyph-name="A" unicode="A" 
d="M39 1702l1555 -1555h-1555v-143h1841v1841h-143v-1554l-1560 1554v0h-138v0v-143z" />
    <glyph glyph-name="B" unicode="B" horiz-adv-x="771" 
d="M86 1377c0.666992 -150 53.999 -299.667 159.999 -449c106.667 -149.333 160 -298.666 160 -447.999c0.666992 -149.333 -87.333 -299 -264 -449c53.333 -29.333 106.333 -29.333 159 0c176 150 264 299.667 264 449c0 150 -53.333 299.667 -160 449
c-106 149.333 -159.333 298.666 -160 447.999c0 119.333 86.333 269 259 449c-49.333 30 -100.666 30 -153.999 0c-176 -180 -264 -329.667 -264 -449z" />
    <glyph glyph-name="C" unicode="C" horiz-adv-x="2585" 
d="M1080 131h-925v862h-132v-994h2246v994h-132v-862h-925l1 1718h-133v0v-1718z" />
    <glyph glyph-name="D" unicode="D" horiz-adv-x="1788" 
d="M155 1010v840l-132 -3v-1846l132 2v875l1353 -1v133v0h-1353z" />
    <glyph glyph-name="E" unicode="E" 
d="M1880 1702l-1555 -1555h1555v-143h-1841v1841h143v-1554l1560 1554v0h138v0v-143z" />
    <glyph glyph-name="F" unicode="F" 
d="M1880 1844v-138v0l-1706 -1705l-135 2v1841h143v-1555l1555 1555h143z" />
    <glyph glyph-name="G" unicode="G" horiz-adv-x="2190" 
d="M66 900c-33.333 -50 -33.333 -98.333 0 -145c200 163.333 366.667 245 500 245c166.667 0 333.334 -50 500.001 -150s333.334 -150 500.001 -150s333.334 83.333 500.001 250c33.333 50 33.333 100 0 150c-166.667 -166.667 -333.334 -250 -500.001 -250
s-333.334 50 -500.001 150s-333.334 150 -500.001 150c-133.333 0 -300 -83.333 -500 -250z" />
    <glyph glyph-name="H" unicode="H" horiz-adv-x="2021" 
d="M97 1848l-3 -130c462.667 -513.333 462 -1036.33 -2 -1569l3 -146h104c248.667 213.333 398.667 504 450 872h1123v165h-1126c-49.333 354.667 -190.333 624 -423 808h-126z" />
    <glyph glyph-name="I" unicode="I" horiz-adv-x="2280" 
d="M13 1849v-157h1491c238 -497.333 234 -996.333 -12 -1497h-1479v-177h1594c333.333 612.667 328.333 1223 -15 1831h-1579z" />
    <glyph glyph-name="J" unicode="J" horiz-adv-x="2924" 
d="M327 1850h155v0l416 -750c138 50 293.667 73.333 467 70c173.333 3.33301 329 -20 467 -70l416 750h155v-150v0l-415 -700c276.667 -200 519 -483.333 727 -850v0v-150h-156v0c-311.333 646.667 -709.333 963.334 -1194 950.001
c-484.667 13.333 -882.667 -303.334 -1194 -950.001h-156v150c208 366.667 450.333 650 727 850v0l-415 700v0v150z" />
    <glyph glyph-name="K" unicode="K" horiz-adv-x="944" 
d="M510 1850l-132 -3v-1846l132 2v1847zM165 1850l-132 -3v-1846l132 2v1847z" />
    <glyph glyph-name="L" unicode="L" horiz-adv-x="1787" 
d="M23 1847v-1846l132 2v1718l1354 -1l-1 126zM544 964c0 62.667 23.168 117.501 69.501 164.501s100.166 70.5 161.499 70.5c59.333 0 109.666 -22 150.999 -66s62 -99.667 62 -167c0 -66 -21.667 -121.833 -65 -167.5s-95.666 -68.5 -156.999 -68.5
c-60 0 -112 23.167 -156 69.5s-66 101.166 -66 164.499z" />
    <glyph glyph-name="M" unicode="M" horiz-adv-x="2205" 
d="M33 4h128l1714 1714v128h-1842v-1842zM1659 1718l-1498 -1498v1498h1498z" />
    <glyph glyph-name="N" unicode="N" horiz-adv-x="2037" 
d="M1861 1827h-157v-1491c-497.333 -238 -996.333 -234 -1497 12v1479h-177v-1594c612.667 -333.333 1223 -328.333 1831 15v1579z" />
    <glyph glyph-name="O" unicode="O" horiz-adv-x="2864" 
d="M1292 284l1144 1555l126 -95l-1265 -1724l-1258 1717l118 102zM1045 1284c0 74.667 27.6689 140 83.002 196s119.666 84 192.999 84c71.333 0 131.666 -26.333 180.999 -79s74 -119 74 -199s-26 -147.167 -78 -201.5s-114.667 -81.5 -188 -81.5
c-71.333 0 -133.333 27.667 -186 83s-79 121.333 -79 198z" />
    <glyph glyph-name="P" unicode="P" horiz-adv-x="2329" 
d="M1906 359l-114 -108l-1476 1480l116 106zM1630 112l-114 -108l-1483 1488l116 106z" />
    <glyph glyph-name="Q" unicode="Q" horiz-adv-x="2034" 
d="M1157 1000l700 700v150h-150l-1700 -1700v-150h150l800 800c133.333 -333.333 400 -600 800 -800h150v150v0v0c-433.333 266.667 -683.333 550 -750 850z" />
    <glyph glyph-name="R" unicode="R" horiz-adv-x="1308" 
d="M810 1010l-792 -3v-1006l132 2v875l813 -1v968h-150z" />
    <glyph glyph-name="S" unicode="S" horiz-adv-x="2275" 
d="M33 105l114 -108l1745 1742l-116 106z" />
    <glyph glyph-name="T" unicode="T" horiz-adv-x="2119" 
d="M30 13h157v1491c497.333 238 996.333 234 1497 -12v-1479h177v1594c-612.667 333.333 -1223 328.333 -1831 -15v-1579z" />
    <glyph glyph-name="U" unicode="U" 
d="M39 -4v138v0l1706 1705l135 -2v-1841h-143v1555l-1555 -1555h-143z" />
    <glyph glyph-name="V" unicode="V" horiz-adv-x="2226" 
d="M31 1295l130 -3c513.333 462.667 1036.33 462 1569 -2l146 3v104c-213.333 248.667 -504 398.667 -872 450l-165 -3c-354.667 -49.333 -624 -190.333 -808 -423v-126zM988 1676l-132 -3v-1679l132 2v1680z" />
    <glyph glyph-name="W" unicode="W" horiz-adv-x="1331" 
d="M381 1848l-3 -130c462.667 -513.333 462 -1036.33 -2 -1569l3 -146h104c248.667 213.333 398.667 504 450 872l-3 165c-49.333 354.667 -190.333 624 -423 808h-126zM66 964c0 62.667 23.168 117.501 69.501 164.501s100.166 70.5 161.499 70.5
c59.333 0 109.666 -22 150.999 -66s62 -99.667 62 -167c0 -66 -21.667 -121.833 -65 -167.5s-95.666 -68.5 -156.999 -68.5c-60 0 -112 23.167 -156 69.5s-66 101.166 -66 164.499z" />
    <glyph glyph-name="X" unicode="X" horiz-adv-x="1908" 
d="M1367 919l-843 847l71 72l915 -915l-915 -915l-71 71zM882 919l-843 847l71 72l915 -915l-915 -915l-71 71z" />
    <glyph glyph-name="Y" unicode="Y" horiz-adv-x="2154" 
d="M1875 4h-128l-1714 1714v128h1842v-1842zM249 1718l1498 -1498v1498h-1498z" />
    <glyph glyph-name="Z" unicode="Z" horiz-adv-x="2021" 
d="M1767 1848l3 -130c-462.667 -513.333 -462 -1036.33 2 -1569l-3 -146h-104c-248.667 213.333 -398.667 504 -450 872h-1123v165h1126c49.333 354.667 190.333 624 423 808h126z" />
    <glyph glyph-name="a" unicode="a" horiz-adv-x="1712" 
d="M39.1992 1361.58l1243.98 -1243.98h-1243.98v-114.398h1472.78v1472.78h-114.397v-1243.18l-1247.98 1243.18v0h-110.398v0v-114.398z" />
    <glyph glyph-name="b" unicode="b" horiz-adv-x="696" 
d="M79.7988 1101.58c0.533203 -119.998 43.1992 -239.729 127.998 -359.194c85.332 -119.465 127.998 -238.93 127.998 -358.395c0.533203 -119.465 -69.8652 -239.196 -211.196 -359.194c42.666 -23.4658 85.0654 -23.4658 127.197 0
c140.798 119.998 211.197 239.729 211.197 359.194c0 119.998 -42.666 239.729 -127.998 359.194c-84.7988 119.465 -127.465 238.93 -127.998 358.395c0 95.4658 69.0654 215.197 207.196 359.194c-39.4658 24 -80.5312 24 -123.197 0
c-140.798 -143.997 -211.197 -263.729 -211.197 -359.194z" />
    <glyph glyph-name="c" unicode="c" horiz-adv-x="2062" 
d="M871.986 104.799h-739.988v689.589h-105.599v-795.188h1796.77v795.188h-105.598v-689.589h-739.989l0.799805 1374.38h-106.398v0v-1374.38z" />
    <glyph glyph-name="d" unicode="d" horiz-adv-x="1416" 
d="M128.998 807.987v671.99l-105.599 -2.40039v-1476.78l105.599 1.60059v699.989l1082.38 -0.800781v106.398v0h-1082.38z" />
    <glyph glyph-name="e" unicode="e" horiz-adv-x="1720" 
d="M1511.98 1361.58l-1243.98 -1243.98h1243.98v-114.398h-1472.78v1472.78h114.398v-1243.18l1247.98 1243.18v0h110.398v0v-114.398z" />
    <glyph glyph-name="f" unicode="f" horiz-adv-x="1674" 
d="M1511.98 1475.18v-110.398v0l-1364.78 -1363.98l-107.999 1.60059v1472.78h114.398v-1243.98l1243.98 1243.98h114.397z" />
    <glyph glyph-name="g" unicode="g" horiz-adv-x="1794" 
d="M61.7988 719.989c-26.666 -39.999 -26.666 -78.6641 0 -115.997c159.998 130.665 293.329 195.997 399.994 195.997c133.331 0 266.662 -40 399.993 -119.999s266.662 -119.998 399.993 -119.998s266.662 66.666 399.993 199.997c26.667 39.999 26.667 79.998 0 119.997
c-133.331 -133.331 -266.662 -199.997 -399.993 -199.997s-266.662 40 -399.993 119.999s-266.662 119.998 -399.993 119.998c-106.665 0 -239.996 -66.666 -399.994 -199.997z" />
    <glyph glyph-name="h" unicode="h" horiz-adv-x="1585" 
d="M95.5986 1478.38l-2.40137 -103.998c370.128 -410.66 369.595 -829.054 -1.59961 -1255.18l2.40039 -116.798h83.1982c198.931 170.664 318.929 403.193 359.995 697.589h898.386v131.998h-900.786c-39.4658 283.729 -152.264 499.192 -338.394 646.39h-100.799z" />
    <glyph glyph-name="i" unicode="i" horiz-adv-x="1663" 
d="M13.3994 1479.18v-125.6h1192.78c190.397 -397.86 187.197 -797.054 -9.59961 -1197.58h-1183.18v-141.599h1275.18c266.663 490.126 262.663 978.386 -12 1464.78h-1263.18z" />
    <glyph glyph-name="j" unicode="j" horiz-adv-x="2422" 
d="M264.596 1479.98h123.999v0l332.795 -599.991c110.398 39.999 234.93 58.665 373.595 55.998c138.665 2.66699 263.196 -15.999 373.595 -55.998l332.795 599.991h123.998v-119.998v0l-331.995 -559.991c221.33 -159.998 415.193 -386.661 581.591 -679.99v0v-119.998
h-124.799v-0c-249.062 517.325 -567.457 770.654 -955.185 759.987c-387.728 10.667 -706.123 -242.662 -955.187 -759.987h-124.798v119.998c166.397 293.329 360.261 519.992 581.591 679.99v0l-331.995 559.991v0v119.998z" />
    <glyph glyph-name="k" unicode="k" horiz-adv-x="738" 
d="M414.994 1479.98l-105.599 -2.40039v-1476.78l105.599 1.60059v1477.58zM138.998 1479.98l-105.599 -2.40039v-1476.78l105.599 1.60059v1477.58z" />
    <glyph glyph-name="l" unicode="l" horiz-adv-x="1416" 
d="M23.3994 1477.58v-1476.78l105.599 1.60059v1374.38l1083.18 -0.800781l-0.799805 100.799zM440.193 771.188c0 50.1318 18.5342 93.998 55.6006 131.598c37.0654 37.5996 80.1309 56.3994 129.196 56.3994c47.4658 0 87.7324 -17.5996 120.799 -52.7998
c33.0654 -35.1992 49.5986 -79.7314 49.5986 -133.598c0 -52.7988 -17.333 -97.4648 -51.999 -133.998c-34.666 -36.5322 -76.5322 -54.7988 -125.598 -54.7988c-47.999 0 -89.5986 18.5332 -124.799 55.5986c-35.1992 37.0664 -52.7988 80.9326 -52.7988 131.599z" />
    <glyph glyph-name="m" unicode="m" horiz-adv-x="1707" 
d="M33.3994 3.2002h102.398l1371.18 1371.18v102.398h-1473.58v-1473.58zM1334.18 1374.38l-1198.38 -1198.38v1198.38h1198.38z" />
    <glyph glyph-name="n" unicode="n" horiz-adv-x="1680" 
d="M1494.78 1461.58h-125.598v-1192.78c-397.86 -190.397 -797.055 -187.197 -1197.58 9.59961v1183.18h-141.598v-1275.18c490.126 -266.663 978.385 -262.663 1464.78 11.999v1263.18z" />
    <glyph glyph-name="o" unicode="o" horiz-adv-x="2288" 
d="M1041.58 227.196l915.187 1243.98l100.798 -75.999l-1011.98 -1379.18l-1006.38 1373.58l94.3984 81.5986zM843.987 1027.18c0 59.7324 22.1338 111.998 66.4004 156.798c44.2656 44.7988 95.7314 67.1982 154.397 67.1982c57.0654 0 105.331 -21.0664 144.797 -63.1982
c39.4658 -42.1328 59.1992 -95.1992 59.1992 -159.198s-20.7998 -117.731 -62.3994 -161.197s-91.7324 -65.1992 -150.397 -65.1992c-57.0654 0 -106.665 22.1328 -148.798 66.3994c-42.1328 44.2656 -63.1992 97.0645 -63.1992 158.397z" />
    <glyph glyph-name="p" unicode="p" horiz-adv-x="1916" 
d="M1531.78 287.195l-91.1982 -86.3984l-1180.78 1183.98l92.7988 84.7988zM1310.98 89.5986l-91.1992 -86.3984l-1186.38 1190.38l92.7988 84.7988z" />
    <glyph glyph-name="q" unicode="q" horiz-adv-x="1731" 
d="M942.586 799.988l559.992 559.991v119.998h-119.998l-1359.98 -1359.98v-119.998h119.998l639.99 639.99c106.665 -266.663 319.995 -479.993 639.99 -639.99h119.998v119.998v0v0c-346.661 213.33 -546.658 439.993 -599.991 679.99z" />
    <glyph glyph-name="r" unicode="r" horiz-adv-x="951" 
d="M651.99 807.987l-633.591 -2.39941v-804.788l105.599 1.60059v699.989l650.391 -0.800781v774.389h-119.999z" />
    <glyph glyph-name="s" unicode="s" horiz-adv-x="1722" 
d="M33.3994 83.999l91.1992 -86.3994l1395.98 1393.58l-92.7988 84.7988z" />
    <glyph glyph-name="t" unicode="t" horiz-adv-x="1690" 
d="M30 10.3994h125.598v1192.78c397.86 190.397 797.055 187.197 1197.58 -9.59961v-1183.18h141.598v1275.18c-490.126 266.663 -978.385 262.663 -1464.78 -12v-1263.18z" />
    <glyph glyph-name="u" unicode="u" horiz-adv-x="1698" 
d="M39.1992 -3.2002v110.398v0l1364.78 1363.98l107.998 -1.59961v-1472.78h-114.397v1243.98l-1243.98 -1243.98h-114.398z" />
    <glyph glyph-name="v" unicode="v" horiz-adv-x="1695" 
d="M30.7998 1035.98l103.998 -2.40137c410.661 370.128 829.055 369.595 1255.18 -1.59961l116.799 2.40039v83.1982c-170.664 198.931 -403.194 318.929 -697.59 359.994l-131.998 -2.39941c-283.729 -39.4658 -499.191 -152.264 -646.39 -338.394v-100.799z
M796.388 1340.78l-105.599 -2.39941v-1343.18l105.599 1.59961v1343.98z" />
    <glyph glyph-name="w" unicode="w" horiz-adv-x="1155" 
d="M317.795 1478.38l-2.40137 -103.998c370.128 -410.66 369.595 -829.054 -1.59961 -1255.18l2.40039 -116.798h83.1992c198.93 170.664 318.928 403.193 359.994 697.589l-2.40039 131.998c-39.4658 283.729 -152.264 499.192 -338.394 646.39h-100.799zM65.7969 771.188
c0 50.1318 18.5332 93.998 55.5996 131.598c37.0654 37.5996 80.1318 56.3994 129.198 56.3994c47.4658 0 87.7314 -17.5996 120.798 -52.7998c33.0664 -35.1992 49.5996 -79.7314 49.5996 -133.598c0 -52.7988 -17.333 -97.4648 -52 -133.998
c-34.666 -36.5322 -76.5322 -54.7988 -125.598 -54.7988c-47.999 0 -89.5986 18.5332 -124.798 55.5986c-35.2002 37.0664 -52.7998 80.9326 -52.7998 131.599z" />
    <glyph glyph-name="x" unicode="x" horiz-adv-x="1475" 
d="M1101.58 735.188l-674.39 677.59l56.7998 57.5996l731.988 -731.989l-731.988 -731.988l-56.7998 56.7988zM713.589 735.188l-674.39 677.59l56.7998 57.5996l731.988 -731.989l-731.988 -731.988l-56.7998 56.7988z" />
    <glyph glyph-name="y" unicode="y" horiz-adv-x="1754" 
d="M1506.98 3.2002h-102.398l-1371.18 1371.18v102.398h1473.58v-1473.58zM206.197 1374.38l1198.38 -1198.38v1198.38h-1198.38z" />
    <glyph glyph-name="z" unicode="z" horiz-adv-x="1693" 
d="M1431.58 1478.38l2.40039 -103.998c-370.128 -410.66 -369.595 -829.054 1.59961 -1255.18l-2.39941 -116.798h-83.1992c-198.931 170.664 -318.929 403.193 -359.994 697.589h-898.387v131.998h900.786c39.4658 283.729 152.265 499.192 338.396 646.39h100.798z" />
    </font>
</defs>
</svg>
